<mxfile host="65bd71144e">
    <diagram name="Página-1" id="3oRAbKmRTNMW5dDMv224">
        <mxGraphModel dx="1799" dy="1987" grid="1" gridSize="1" guides="1" tooltips="1" connect="1" arrows="1" fold="1" page="1" pageScale="1" pageWidth="827" pageHeight="1169" math="0" shadow="0">
            <root>
                <mxCell id="0"/>
                <mxCell id="1" parent="0"/>
                <mxCell id="897" style="edgeStyle=none;html=1;endArrow=none;endFill=0;" parent="1" source="894" target="678" edge="1">
                    <mxGeometry relative="1" as="geometry"/>
                </mxCell>
                <mxCell id="898" value="1" style="edgeLabel;html=1;align=center;verticalAlign=middle;resizable=0;points=[];" parent="897" vertex="1" connectable="0">
                    <mxGeometry x="-0.5695" relative="1" as="geometry">
                        <mxPoint y="-1" as="offset"/>
                    </mxGeometry>
                </mxCell>
                <mxCell id="46" value="Modelo Conceitual" style="text;html=1;align=center;verticalAlign=middle;resizable=0;points=[];autosize=1;strokeColor=none;fillColor=none;fontSize=48;" parent="1" vertex="1">
                    <mxGeometry x="203" y="125" width="420" height="70" as="geometry"/>
                </mxCell>
                <mxCell id="47" value="Modelo Lógico" style="text;html=1;align=center;verticalAlign=middle;resizable=0;points=[];autosize=1;strokeColor=none;fillColor=none;fontSize=48;" parent="1" vertex="1">
                    <mxGeometry x="243.5" y="840" width="340" height="70" as="geometry"/>
                </mxCell>
                <mxCell id="48" value="Modelo Físico" style="text;html=1;align=center;verticalAlign=middle;resizable=0;points=[];autosize=1;strokeColor=none;fillColor=none;fontSize=48;" parent="1" vertex="1">
                    <mxGeometry x="253" y="1474" width="320" height="70" as="geometry"/>
                </mxCell>
                <mxCell id="202" value="Endereço" style="shape=table;startSize=30;container=1;collapsible=0;childLayout=tableLayout;fontStyle=1;align=center;shadow=1;labelBackgroundColor=none;" parent="1" vertex="1">
                    <mxGeometry x="-397" y="2279" width="1018" height="429" as="geometry"/>
                </mxCell>
                <mxCell id="203" value="" style="shape=tableRow;horizontal=0;startSize=0;swimlaneHead=0;swimlaneBody=0;top=0;left=0;bottom=0;right=0;collapsible=0;dropTarget=0;fillColor=none;points=[[0,0.5],[1,0.5]];portConstraint=eastwest;shadow=1;labelBackgroundColor=none;strokeColor=#050505;fontColor=#000000;" parent="202" vertex="1">
                    <mxGeometry y="30" width="1018" height="57" as="geometry"/>
                </mxCell>
                <mxCell id="204" value="IdEndereco" style="shape=partialRectangle;html=1;whiteSpace=wrap;connectable=0;top=0;left=0;bottom=0;right=0;overflow=hidden;shadow=1;labelBackgroundColor=none;" parent="203" vertex="1">
                    <mxGeometry width="72" height="57" as="geometry">
                        <mxRectangle width="72" height="57" as="alternateBounds"/>
                    </mxGeometry>
                </mxCell>
                <mxCell id="205" value="Bairro" style="shape=partialRectangle;html=1;whiteSpace=wrap;connectable=0;top=0;left=0;bottom=0;right=0;overflow=hidden;shadow=1;labelBackgroundColor=none;" parent="203" vertex="1">
                    <mxGeometry x="72" width="64" height="57" as="geometry">
                        <mxRectangle width="64" height="57" as="alternateBounds"/>
                    </mxGeometry>
                </mxCell>
                <mxCell id="215" value="Cep" style="shape=partialRectangle;html=1;whiteSpace=wrap;connectable=0;top=0;left=0;bottom=0;right=0;overflow=hidden;shadow=1;labelBackgroundColor=none;" parent="203" vertex="1">
                    <mxGeometry x="136" width="147" height="57" as="geometry">
                        <mxRectangle width="147" height="57" as="alternateBounds"/>
                    </mxGeometry>
                </mxCell>
                <mxCell id="903" value="Cidade" style="shape=partialRectangle;html=1;whiteSpace=wrap;connectable=0;top=0;left=0;bottom=0;right=0;overflow=hidden;shadow=1;labelBackgroundColor=none;" parent="203" vertex="1">
                    <mxGeometry x="283" width="147" height="57" as="geometry">
                        <mxRectangle width="147" height="57" as="alternateBounds"/>
                    </mxGeometry>
                </mxCell>
                <mxCell id="907" value="Complemento" style="shape=partialRectangle;html=1;whiteSpace=wrap;connectable=0;top=0;left=0;bottom=0;right=0;overflow=hidden;shadow=1;labelBackgroundColor=none;" parent="203" vertex="1">
                    <mxGeometry x="430" width="147" height="57" as="geometry">
                        <mxRectangle width="147" height="57" as="alternateBounds"/>
                    </mxGeometry>
                </mxCell>
                <mxCell id="911" value="Logradouro" style="shape=partialRectangle;html=1;whiteSpace=wrap;connectable=0;top=0;left=0;bottom=0;right=0;overflow=hidden;shadow=1;labelBackgroundColor=none;" parent="203" vertex="1">
                    <mxGeometry x="577" width="147" height="57" as="geometry">
                        <mxRectangle width="147" height="57" as="alternateBounds"/>
                    </mxGeometry>
                </mxCell>
                <mxCell id="915" value="Numero" style="shape=partialRectangle;html=1;whiteSpace=wrap;connectable=0;top=0;left=0;bottom=0;right=0;overflow=hidden;shadow=1;labelBackgroundColor=none;" parent="203" vertex="1">
                    <mxGeometry x="724" width="147" height="57" as="geometry">
                        <mxRectangle width="147" height="57" as="alternateBounds"/>
                    </mxGeometry>
                </mxCell>
                <mxCell id="919" value="UF" style="shape=partialRectangle;html=1;whiteSpace=wrap;connectable=0;top=0;left=0;bottom=0;right=0;overflow=hidden;shadow=1;labelBackgroundColor=none;" parent="203" vertex="1">
                    <mxGeometry x="871" width="147" height="57" as="geometry">
                        <mxRectangle width="147" height="57" as="alternateBounds"/>
                    </mxGeometry>
                </mxCell>
                <mxCell id="207" value="" style="shape=tableRow;horizontal=0;startSize=0;swimlaneHead=0;swimlaneBody=0;top=0;left=0;bottom=0;right=0;collapsible=0;dropTarget=0;fillColor=none;points=[[0,0.5],[1,0.5]];portConstraint=eastwest;shadow=1;labelBackgroundColor=none;strokeColor=#050505;fontColor=#000000;" parent="202" vertex="1">
                    <mxGeometry y="87" width="1018" height="57" as="geometry"/>
                </mxCell>
                <mxCell id="208" value="1" style="shape=partialRectangle;html=1;whiteSpace=wrap;connectable=0;top=0;left=0;bottom=0;right=0;overflow=hidden;shadow=1;labelBackgroundColor=none;fillColor=#eeeeee;strokeColor=#36393d;fontColor=#252323;" parent="207" vertex="1">
                    <mxGeometry width="72" height="57" as="geometry">
                        <mxRectangle width="72" height="57" as="alternateBounds"/>
                    </mxGeometry>
                </mxCell>
                <mxCell id="209" value="Parque Imperial" style="shape=partialRectangle;html=1;whiteSpace=wrap;connectable=0;top=0;left=0;bottom=0;right=0;overflow=hidden;shadow=1;labelBackgroundColor=none;fillColor=#eeeeee;strokeColor=#36393d;fontColor=#252323;" parent="207" vertex="1">
                    <mxGeometry x="72" width="64" height="57" as="geometry">
                        <mxRectangle width="64" height="57" as="alternateBounds"/>
                    </mxGeometry>
                </mxCell>
                <mxCell id="216" value="04302021" style="shape=partialRectangle;html=1;whiteSpace=wrap;connectable=0;top=0;left=0;bottom=0;right=0;overflow=hidden;shadow=1;labelBackgroundColor=none;fillColor=#eeeeee;strokeColor=#36393d;fontColor=#252323;" parent="207" vertex="1">
                    <mxGeometry x="136" width="147" height="57" as="geometry">
                        <mxRectangle width="147" height="57" as="alternateBounds"/>
                    </mxGeometry>
                </mxCell>
                <mxCell id="904" value="São Paulo" style="shape=partialRectangle;html=1;whiteSpace=wrap;connectable=0;top=0;left=0;bottom=0;right=0;overflow=hidden;shadow=1;labelBackgroundColor=none;fillColor=#eeeeee;strokeColor=#36393d;fontColor=#252323;" parent="207" vertex="1">
                    <mxGeometry x="283" width="147" height="57" as="geometry">
                        <mxRectangle width="147" height="57" as="alternateBounds"/>
                    </mxGeometry>
                </mxCell>
                <mxCell id="908" value="Casa" style="shape=partialRectangle;html=1;whiteSpace=wrap;connectable=0;top=0;left=0;bottom=0;right=0;overflow=hidden;shadow=1;labelBackgroundColor=none;fillColor=#eeeeee;strokeColor=#36393d;fontColor=#252323;" parent="207" vertex="1">
                    <mxGeometry x="430" width="147" height="57" as="geometry">
                        <mxRectangle width="147" height="57" as="alternateBounds"/>
                    </mxGeometry>
                </mxCell>
                <mxCell id="912" value="Rua Paracatu" style="shape=partialRectangle;html=1;whiteSpace=wrap;connectable=0;top=0;left=0;bottom=0;right=0;overflow=hidden;shadow=1;labelBackgroundColor=none;fillColor=#eeeeee;strokeColor=#36393d;fontColor=#252323;" parent="207" vertex="1">
                    <mxGeometry x="577" width="147" height="57" as="geometry">
                        <mxRectangle width="147" height="57" as="alternateBounds"/>
                    </mxGeometry>
                </mxCell>
                <mxCell id="916" value="569" style="shape=partialRectangle;html=1;whiteSpace=wrap;connectable=0;top=0;left=0;bottom=0;right=0;overflow=hidden;shadow=1;labelBackgroundColor=none;fillColor=#eeeeee;strokeColor=#36393d;fontColor=#252323;" parent="207" vertex="1">
                    <mxGeometry x="724" width="147" height="57" as="geometry">
                        <mxRectangle width="147" height="57" as="alternateBounds"/>
                    </mxGeometry>
                </mxCell>
                <mxCell id="920" value="SP" style="shape=partialRectangle;html=1;whiteSpace=wrap;connectable=0;top=0;left=0;bottom=0;right=0;overflow=hidden;shadow=1;labelBackgroundColor=none;fillColor=#eeeeee;strokeColor=#36393d;fontColor=#252323;" parent="207" vertex="1">
                    <mxGeometry x="871" width="147" height="57" as="geometry">
                        <mxRectangle width="147" height="57" as="alternateBounds"/>
                    </mxGeometry>
                </mxCell>
                <mxCell id="211" value="" style="shape=tableRow;horizontal=0;startSize=0;swimlaneHead=0;swimlaneBody=0;top=0;left=0;bottom=0;right=0;collapsible=0;dropTarget=0;fillColor=none;points=[[0,0.5],[1,0.5]];portConstraint=eastwest;shadow=1;labelBackgroundColor=none;strokeColor=#050505;fontColor=#000000;" parent="202" vertex="1">
                    <mxGeometry y="144" width="1018" height="57" as="geometry"/>
                </mxCell>
                <mxCell id="212" value="2" style="shape=partialRectangle;html=1;whiteSpace=wrap;connectable=0;top=0;left=0;bottom=0;right=0;overflow=hidden;shadow=1;labelBackgroundColor=none;fillColor=#eeeeee;strokeColor=#36393d;fontColor=#252323;" parent="211" vertex="1">
                    <mxGeometry width="72" height="57" as="geometry">
                        <mxRectangle width="72" height="57" as="alternateBounds"/>
                    </mxGeometry>
                </mxCell>
                <mxCell id="213" value="Aldeota" style="shape=partialRectangle;html=1;whiteSpace=wrap;connectable=0;top=0;left=0;bottom=0;right=0;overflow=hidden;shadow=1;labelBackgroundColor=none;fillColor=#eeeeee;strokeColor=#36393d;fontColor=#252323;" parent="211" vertex="1">
                    <mxGeometry x="72" width="64" height="57" as="geometry">
                        <mxRectangle width="64" height="57" as="alternateBounds"/>
                    </mxGeometry>
                </mxCell>
                <mxCell id="217" value="60170001" style="shape=partialRectangle;html=1;whiteSpace=wrap;connectable=0;top=0;left=0;bottom=0;right=0;overflow=hidden;shadow=1;labelBackgroundColor=none;fillColor=#eeeeee;strokeColor=#36393d;fontColor=#252323;" parent="211" vertex="1">
                    <mxGeometry x="136" width="147" height="57" as="geometry">
                        <mxRectangle width="147" height="57" as="alternateBounds"/>
                    </mxGeometry>
                </mxCell>
                <mxCell id="905" value="Fortaleza" style="shape=partialRectangle;html=1;whiteSpace=wrap;connectable=0;top=0;left=0;bottom=0;right=0;overflow=hidden;shadow=1;labelBackgroundColor=none;fillColor=#eeeeee;strokeColor=#36393d;fontColor=#252323;" parent="211" vertex="1">
                    <mxGeometry x="283" width="147" height="57" as="geometry">
                        <mxRectangle width="147" height="57" as="alternateBounds"/>
                    </mxGeometry>
                </mxCell>
                <mxCell id="909" value="Bloco 30, Ap 58" style="shape=partialRectangle;html=1;whiteSpace=wrap;connectable=0;top=0;left=0;bottom=0;right=0;overflow=hidden;shadow=1;labelBackgroundColor=none;fillColor=#eeeeee;strokeColor=#36393d;fontColor=#252323;" parent="211" vertex="1">
                    <mxGeometry x="430" width="147" height="57" as="geometry">
                        <mxRectangle width="147" height="57" as="alternateBounds"/>
                    </mxGeometry>
                </mxCell>
                <mxCell id="913" value="Avenida Desembargador Moreira" style="shape=partialRectangle;html=1;whiteSpace=wrap;connectable=0;top=0;left=0;bottom=0;right=0;overflow=hidden;shadow=1;labelBackgroundColor=none;fillColor=#eeeeee;strokeColor=#36393d;fontColor=#252323;" parent="211" vertex="1">
                    <mxGeometry x="577" width="147" height="57" as="geometry">
                        <mxRectangle width="147" height="57" as="alternateBounds"/>
                    </mxGeometry>
                </mxCell>
                <mxCell id="917" value="987" style="shape=partialRectangle;html=1;whiteSpace=wrap;connectable=0;top=0;left=0;bottom=0;right=0;overflow=hidden;shadow=1;labelBackgroundColor=none;fillColor=#eeeeee;strokeColor=#36393d;fontColor=#252323;" parent="211" vertex="1">
                    <mxGeometry x="724" width="147" height="57" as="geometry">
                        <mxRectangle width="147" height="57" as="alternateBounds"/>
                    </mxGeometry>
                </mxCell>
                <mxCell id="921" value="CE" style="shape=partialRectangle;html=1;whiteSpace=wrap;connectable=0;top=0;left=0;bottom=0;right=0;overflow=hidden;shadow=1;labelBackgroundColor=none;fillColor=#eeeeee;strokeColor=#36393d;fontColor=#252323;" parent="211" vertex="1">
                    <mxGeometry x="871" width="147" height="57" as="geometry">
                        <mxRectangle width="147" height="57" as="alternateBounds"/>
                    </mxGeometry>
                </mxCell>
                <mxCell id="436" style="shape=tableRow;horizontal=0;startSize=0;swimlaneHead=0;swimlaneBody=0;top=0;left=0;bottom=0;right=0;collapsible=0;dropTarget=0;fillColor=none;points=[[0,0.5],[1,0.5]];portConstraint=eastwest;shadow=1;labelBackgroundColor=none;strokeColor=#050505;fontColor=#000000;" parent="202" vertex="1">
                    <mxGeometry y="201" width="1018" height="57" as="geometry"/>
                </mxCell>
                <mxCell id="437" value="3" style="shape=partialRectangle;html=1;whiteSpace=wrap;connectable=0;top=0;left=0;bottom=0;right=0;overflow=hidden;shadow=1;labelBackgroundColor=none;fillColor=#eeeeee;strokeColor=#36393d;fontColor=#252323;" parent="436" vertex="1">
                    <mxGeometry width="72" height="57" as="geometry">
                        <mxRectangle width="72" height="57" as="alternateBounds"/>
                    </mxGeometry>
                </mxCell>
                <mxCell id="438" value="Vila Gomes Cardim" style="shape=partialRectangle;html=1;whiteSpace=wrap;connectable=0;top=0;left=0;bottom=0;right=0;overflow=hidden;shadow=1;labelBackgroundColor=none;fillColor=#eeeeee;strokeColor=#36393d;fontColor=#252323;" parent="436" vertex="1">
                    <mxGeometry x="72" width="64" height="57" as="geometry">
                        <mxRectangle width="64" height="57" as="alternateBounds"/>
                    </mxGeometry>
                </mxCell>
                <mxCell id="439" value="03318000" style="shape=partialRectangle;html=1;whiteSpace=wrap;connectable=0;top=0;left=0;bottom=0;right=0;overflow=hidden;shadow=1;labelBackgroundColor=none;fillColor=#eeeeee;strokeColor=#36393d;fontColor=#252323;" parent="436" vertex="1">
                    <mxGeometry x="136" width="147" height="57" as="geometry">
                        <mxRectangle width="147" height="57" as="alternateBounds"/>
                    </mxGeometry>
                </mxCell>
                <mxCell id="906" value="São Paulo" style="shape=partialRectangle;html=1;whiteSpace=wrap;connectable=0;top=0;left=0;bottom=0;right=0;overflow=hidden;shadow=1;labelBackgroundColor=none;fillColor=#eeeeee;strokeColor=#36393d;fontColor=#252323;" parent="436" vertex="1">
                    <mxGeometry x="283" width="147" height="57" as="geometry">
                        <mxRectangle width="147" height="57" as="alternateBounds"/>
                    </mxGeometry>
                </mxCell>
                <mxCell id="910" value="Travessa 34" style="shape=partialRectangle;html=1;whiteSpace=wrap;connectable=0;top=0;left=0;bottom=0;right=0;overflow=hidden;shadow=1;labelBackgroundColor=none;fillColor=#eeeeee;strokeColor=#36393d;fontColor=#252323;" parent="436" vertex="1">
                    <mxGeometry x="430" width="147" height="57" as="geometry">
                        <mxRectangle width="147" height="57" as="alternateBounds"/>
                    </mxGeometry>
                </mxCell>
                <mxCell id="914" value="Rua Serra de Bragança" style="shape=partialRectangle;html=1;whiteSpace=wrap;connectable=0;top=0;left=0;bottom=0;right=0;overflow=hidden;shadow=1;labelBackgroundColor=none;fillColor=#eeeeee;strokeColor=#36393d;fontColor=#252323;" parent="436" vertex="1">
                    <mxGeometry x="577" width="147" height="57" as="geometry">
                        <mxRectangle width="147" height="57" as="alternateBounds"/>
                    </mxGeometry>
                </mxCell>
                <mxCell id="918" value="001" style="shape=partialRectangle;html=1;whiteSpace=wrap;connectable=0;top=0;left=0;bottom=0;right=0;overflow=hidden;shadow=1;labelBackgroundColor=none;fillColor=#eeeeee;strokeColor=#36393d;fontColor=#252323;" parent="436" vertex="1">
                    <mxGeometry x="724" width="147" height="57" as="geometry">
                        <mxRectangle width="147" height="57" as="alternateBounds"/>
                    </mxGeometry>
                </mxCell>
                <mxCell id="922" value="SP" style="shape=partialRectangle;html=1;whiteSpace=wrap;connectable=0;top=0;left=0;bottom=0;right=0;overflow=hidden;shadow=1;labelBackgroundColor=none;fillColor=#eeeeee;strokeColor=#36393d;fontColor=#252323;" parent="436" vertex="1">
                    <mxGeometry x="871" width="147" height="57" as="geometry">
                        <mxRectangle width="147" height="57" as="alternateBounds"/>
                    </mxGeometry>
                </mxCell>
                <mxCell id="1026" style="shape=tableRow;horizontal=0;startSize=0;swimlaneHead=0;swimlaneBody=0;top=0;left=0;bottom=0;right=0;collapsible=0;dropTarget=0;fillColor=none;points=[[0,0.5],[1,0.5]];portConstraint=eastwest;shadow=1;labelBackgroundColor=none;strokeColor=#050505;fontColor=#000000;" parent="202" vertex="1">
                    <mxGeometry y="258" width="1018" height="57" as="geometry"/>
                </mxCell>
                <mxCell id="1027" value="4" style="shape=partialRectangle;html=1;whiteSpace=wrap;connectable=0;top=0;left=0;bottom=0;right=0;overflow=hidden;shadow=1;labelBackgroundColor=none;fillColor=#eeeeee;strokeColor=#36393d;fontColor=#252323;" parent="1026" vertex="1">
                    <mxGeometry width="72" height="57" as="geometry">
                        <mxRectangle width="72" height="57" as="alternateBounds"/>
                    </mxGeometry>
                </mxCell>
                <mxCell id="1028" value="Casa Grande" style="shape=partialRectangle;html=1;whiteSpace=wrap;connectable=0;top=0;left=0;bottom=0;right=0;overflow=hidden;shadow=1;labelBackgroundColor=none;fillColor=#eeeeee;strokeColor=#36393d;fontColor=#252323;" parent="1026" vertex="1">
                    <mxGeometry x="72" width="64" height="57" as="geometry">
                        <mxRectangle width="64" height="57" as="alternateBounds"/>
                    </mxGeometry>
                </mxCell>
                <mxCell id="1029" value="09961660" style="shape=partialRectangle;html=1;whiteSpace=wrap;connectable=0;top=0;left=0;bottom=0;right=0;overflow=hidden;shadow=1;labelBackgroundColor=none;fillColor=#eeeeee;strokeColor=#36393d;fontColor=#252323;" parent="1026" vertex="1">
                    <mxGeometry x="136" width="147" height="57" as="geometry">
                        <mxRectangle width="147" height="57" as="alternateBounds"/>
                    </mxGeometry>
                </mxCell>
                <mxCell id="1030" value="Diadema" style="shape=partialRectangle;html=1;whiteSpace=wrap;connectable=0;top=0;left=0;bottom=0;right=0;overflow=hidden;shadow=1;labelBackgroundColor=none;fillColor=#eeeeee;strokeColor=#36393d;fontColor=#252323;" parent="1026" vertex="1">
                    <mxGeometry x="283" width="147" height="57" as="geometry">
                        <mxRectangle width="147" height="57" as="alternateBounds"/>
                    </mxGeometry>
                </mxCell>
                <mxCell id="1031" style="shape=partialRectangle;html=1;whiteSpace=wrap;connectable=0;top=0;left=0;bottom=0;right=0;overflow=hidden;shadow=1;labelBackgroundColor=none;fillColor=#eeeeee;strokeColor=#36393d;fontColor=#252323;" parent="1026" vertex="1">
                    <mxGeometry x="430" width="147" height="57" as="geometry">
                        <mxRectangle width="147" height="57" as="alternateBounds"/>
                    </mxGeometry>
                </mxCell>
                <mxCell id="1032" value="Rua Barão de Vitória" style="shape=partialRectangle;html=1;whiteSpace=wrap;connectable=0;top=0;left=0;bottom=0;right=0;overflow=hidden;shadow=1;labelBackgroundColor=none;fillColor=#eeeeee;strokeColor=#36393d;fontColor=#252323;" parent="1026" vertex="1">
                    <mxGeometry x="577" width="147" height="57" as="geometry">
                        <mxRectangle width="147" height="57" as="alternateBounds"/>
                    </mxGeometry>
                </mxCell>
                <mxCell id="1033" value="45436" style="shape=partialRectangle;html=1;whiteSpace=wrap;connectable=0;top=0;left=0;bottom=0;right=0;overflow=hidden;shadow=1;labelBackgroundColor=none;fillColor=#eeeeee;strokeColor=#36393d;fontColor=#252323;" parent="1026" vertex="1">
                    <mxGeometry x="724" width="147" height="57" as="geometry">
                        <mxRectangle width="147" height="57" as="alternateBounds"/>
                    </mxGeometry>
                </mxCell>
                <mxCell id="1034" value="SP" style="shape=partialRectangle;html=1;whiteSpace=wrap;connectable=0;top=0;left=0;bottom=0;right=0;overflow=hidden;shadow=1;labelBackgroundColor=none;fillColor=#eeeeee;strokeColor=#36393d;fontColor=#252323;" parent="1026" vertex="1">
                    <mxGeometry x="871" width="147" height="57" as="geometry">
                        <mxRectangle width="147" height="57" as="alternateBounds"/>
                    </mxGeometry>
                </mxCell>
                <mxCell id="1035" style="shape=tableRow;horizontal=0;startSize=0;swimlaneHead=0;swimlaneBody=0;top=0;left=0;bottom=0;right=0;collapsible=0;dropTarget=0;fillColor=none;points=[[0,0.5],[1,0.5]];portConstraint=eastwest;shadow=1;labelBackgroundColor=none;strokeColor=#050505;fontColor=#000000;" parent="202" vertex="1">
                    <mxGeometry y="315" width="1018" height="57" as="geometry"/>
                </mxCell>
                <mxCell id="1036" value="5" style="shape=partialRectangle;html=1;whiteSpace=wrap;connectable=0;top=0;left=0;bottom=0;right=0;overflow=hidden;shadow=1;labelBackgroundColor=none;fillColor=#eeeeee;strokeColor=#36393d;fontColor=#252323;" parent="1035" vertex="1">
                    <mxGeometry width="72" height="57" as="geometry">
                        <mxRectangle width="72" height="57" as="alternateBounds"/>
                    </mxGeometry>
                </mxCell>
                <mxCell id="1037" value="República" style="shape=partialRectangle;html=1;whiteSpace=wrap;connectable=0;top=0;left=0;bottom=0;right=0;overflow=hidden;shadow=1;labelBackgroundColor=none;fillColor=#eeeeee;strokeColor=#36393d;fontColor=#252323;" parent="1035" vertex="1">
                    <mxGeometry x="72" width="64" height="57" as="geometry">
                        <mxRectangle width="64" height="57" as="alternateBounds"/>
                    </mxGeometry>
                </mxCell>
                <mxCell id="1038" value="01045001" style="shape=partialRectangle;html=1;whiteSpace=wrap;connectable=0;top=0;left=0;bottom=0;right=0;overflow=hidden;shadow=1;labelBackgroundColor=none;fillColor=#eeeeee;strokeColor=#36393d;fontColor=#252323;" parent="1035" vertex="1">
                    <mxGeometry x="136" width="147" height="57" as="geometry">
                        <mxRectangle width="147" height="57" as="alternateBounds"/>
                    </mxGeometry>
                </mxCell>
                <mxCell id="1039" value="São Paulo" style="shape=partialRectangle;html=1;whiteSpace=wrap;connectable=0;top=0;left=0;bottom=0;right=0;overflow=hidden;shadow=1;labelBackgroundColor=none;fillColor=#eeeeee;strokeColor=#36393d;fontColor=#252323;" parent="1035" vertex="1">
                    <mxGeometry x="283" width="147" height="57" as="geometry">
                        <mxRectangle width="147" height="57" as="alternateBounds"/>
                    </mxGeometry>
                </mxCell>
                <mxCell id="1040" style="shape=partialRectangle;html=1;whiteSpace=wrap;connectable=0;top=0;left=0;bottom=0;right=0;overflow=hidden;shadow=1;labelBackgroundColor=none;fillColor=#eeeeee;strokeColor=#36393d;fontColor=#252323;" parent="1035" vertex="1">
                    <mxGeometry x="430" width="147" height="57" as="geometry">
                        <mxRectangle width="147" height="57" as="alternateBounds"/>
                    </mxGeometry>
                </mxCell>
                <mxCell id="1041" value="Praça da República" style="shape=partialRectangle;html=1;whiteSpace=wrap;connectable=0;top=0;left=0;bottom=0;right=0;overflow=hidden;shadow=1;labelBackgroundColor=none;fillColor=#eeeeee;strokeColor=#36393d;fontColor=#252323;" parent="1035" vertex="1">
                    <mxGeometry x="577" width="147" height="57" as="geometry">
                        <mxRectangle width="147" height="57" as="alternateBounds"/>
                    </mxGeometry>
                </mxCell>
                <mxCell id="1042" value="0" style="shape=partialRectangle;html=1;whiteSpace=wrap;connectable=0;top=0;left=0;bottom=0;right=0;overflow=hidden;shadow=1;labelBackgroundColor=none;fillColor=#eeeeee;strokeColor=#36393d;fontColor=#252323;" parent="1035" vertex="1">
                    <mxGeometry x="724" width="147" height="57" as="geometry">
                        <mxRectangle width="147" height="57" as="alternateBounds"/>
                    </mxGeometry>
                </mxCell>
                <mxCell id="1043" value="SP" style="shape=partialRectangle;html=1;whiteSpace=wrap;connectable=0;top=0;left=0;bottom=0;right=0;overflow=hidden;shadow=1;labelBackgroundColor=none;fillColor=#eeeeee;strokeColor=#36393d;fontColor=#252323;" parent="1035" vertex="1">
                    <mxGeometry x="871" width="147" height="57" as="geometry">
                        <mxRectangle width="147" height="57" as="alternateBounds"/>
                    </mxGeometry>
                </mxCell>
                <mxCell id="1044" style="shape=tableRow;horizontal=0;startSize=0;swimlaneHead=0;swimlaneBody=0;top=0;left=0;bottom=0;right=0;collapsible=0;dropTarget=0;fillColor=none;points=[[0,0.5],[1,0.5]];portConstraint=eastwest;shadow=1;labelBackgroundColor=none;strokeColor=#050505;fontColor=#000000;" parent="202" vertex="1">
                    <mxGeometry y="372" width="1018" height="57" as="geometry"/>
                </mxCell>
                <mxCell id="1045" value="6" style="shape=partialRectangle;html=1;whiteSpace=wrap;connectable=0;top=0;left=0;bottom=0;right=0;overflow=hidden;shadow=1;labelBackgroundColor=none;fillColor=#eeeeee;strokeColor=#36393d;fontColor=#252323;" parent="1044" vertex="1">
                    <mxGeometry width="72" height="57" as="geometry">
                        <mxRectangle width="72" height="57" as="alternateBounds"/>
                    </mxGeometry>
                </mxCell>
                <mxCell id="1046" value="Nazaré" style="shape=partialRectangle;html=1;whiteSpace=wrap;connectable=0;top=0;left=0;bottom=0;right=0;overflow=hidden;shadow=1;labelBackgroundColor=none;fillColor=#eeeeee;strokeColor=#36393d;fontColor=#252323;" parent="1044" vertex="1">
                    <mxGeometry x="72" width="64" height="57" as="geometry">
                        <mxRectangle width="64" height="57" as="alternateBounds"/>
                    </mxGeometry>
                </mxCell>
                <mxCell id="1047" value="66055260" style="shape=partialRectangle;html=1;whiteSpace=wrap;connectable=0;top=0;left=0;bottom=0;right=0;overflow=hidden;shadow=1;labelBackgroundColor=none;fillColor=#eeeeee;strokeColor=#36393d;fontColor=#252323;" parent="1044" vertex="1">
                    <mxGeometry x="136" width="147" height="57" as="geometry">
                        <mxRectangle width="147" height="57" as="alternateBounds"/>
                    </mxGeometry>
                </mxCell>
                <mxCell id="1048" value="Belém" style="shape=partialRectangle;html=1;whiteSpace=wrap;connectable=0;top=0;left=0;bottom=0;right=0;overflow=hidden;shadow=1;labelBackgroundColor=none;fillColor=#eeeeee;strokeColor=#36393d;fontColor=#252323;" parent="1044" vertex="1">
                    <mxGeometry x="283" width="147" height="57" as="geometry">
                        <mxRectangle width="147" height="57" as="alternateBounds"/>
                    </mxGeometry>
                </mxCell>
                <mxCell id="1049" style="shape=partialRectangle;html=1;whiteSpace=wrap;connectable=0;top=0;left=0;bottom=0;right=0;overflow=hidden;shadow=1;labelBackgroundColor=none;fillColor=#eeeeee;strokeColor=#36393d;fontColor=#252323;" parent="1044" vertex="1">
                    <mxGeometry x="430" width="147" height="57" as="geometry">
                        <mxRectangle width="147" height="57" as="alternateBounds"/>
                    </mxGeometry>
                </mxCell>
                <mxCell id="1050" value="Avenida Governador José Malcher" style="shape=partialRectangle;html=1;whiteSpace=wrap;connectable=0;top=0;left=0;bottom=0;right=0;overflow=hidden;shadow=1;labelBackgroundColor=none;fillColor=#eeeeee;strokeColor=#36393d;fontColor=#252323;" parent="1044" vertex="1">
                    <mxGeometry x="577" width="147" height="57" as="geometry">
                        <mxRectangle width="147" height="57" as="alternateBounds"/>
                    </mxGeometry>
                </mxCell>
                <mxCell id="1051" value="036" style="shape=partialRectangle;html=1;whiteSpace=wrap;connectable=0;top=0;left=0;bottom=0;right=0;overflow=hidden;shadow=1;labelBackgroundColor=none;fillColor=#eeeeee;strokeColor=#36393d;fontColor=#252323;" parent="1044" vertex="1">
                    <mxGeometry x="724" width="147" height="57" as="geometry">
                        <mxRectangle width="147" height="57" as="alternateBounds"/>
                    </mxGeometry>
                </mxCell>
                <mxCell id="1052" value="PA" style="shape=partialRectangle;html=1;whiteSpace=wrap;connectable=0;top=0;left=0;bottom=0;right=0;overflow=hidden;shadow=1;labelBackgroundColor=none;fillColor=#eeeeee;strokeColor=#36393d;fontColor=#252323;" parent="1044" vertex="1">
                    <mxGeometry x="871" width="147" height="57" as="geometry">
                        <mxRectangle width="147" height="57" as="alternateBounds"/>
                    </mxGeometry>
                </mxCell>
                <mxCell id="218" value="Atendimento" style="shape=table;startSize=30;container=1;collapsible=0;childLayout=tableLayout;fontStyle=1;align=center;shadow=1;labelBackgroundColor=none;" parent="1" vertex="1">
                    <mxGeometry x="787.5" y="1985" width="589" height="256" as="geometry"/>
                </mxCell>
                <mxCell id="219" value="" style="shape=tableRow;horizontal=0;startSize=0;swimlaneHead=0;swimlaneBody=0;top=0;left=0;bottom=0;right=0;collapsible=0;dropTarget=0;fillColor=none;points=[[0,0.5],[1,0.5]];portConstraint=eastwest;shadow=1;labelBackgroundColor=none;strokeColor=#050505;fontColor=#000000;" parent="218" vertex="1">
                    <mxGeometry y="30" width="589" height="57" as="geometry"/>
                </mxCell>
                <mxCell id="220" value="IdAtendimento" style="shape=partialRectangle;html=1;whiteSpace=wrap;connectable=0;top=0;left=0;bottom=0;right=0;overflow=hidden;shadow=1;labelBackgroundColor=none;" parent="219" vertex="1">
                    <mxGeometry width="80" height="57" as="geometry">
                        <mxRectangle width="80" height="57" as="alternateBounds"/>
                    </mxGeometry>
                </mxCell>
                <mxCell id="222" value="Protocolo" style="shape=partialRectangle;html=1;whiteSpace=wrap;connectable=0;top=0;left=0;bottom=0;right=0;overflow=hidden;shadow=1;labelBackgroundColor=none;" parent="219" vertex="1">
                    <mxGeometry x="80" width="141" height="57" as="geometry">
                        <mxRectangle width="141" height="57" as="alternateBounds"/>
                    </mxGeometry>
                </mxCell>
                <mxCell id="433" value="DataAtendimento" style="shape=partialRectangle;html=1;whiteSpace=wrap;connectable=0;top=0;left=0;bottom=0;right=0;overflow=hidden;shadow=1;labelBackgroundColor=none;" parent="219" vertex="1">
                    <mxGeometry x="221" width="92" height="57" as="geometry">
                        <mxRectangle width="92" height="57" as="alternateBounds"/>
                    </mxGeometry>
                </mxCell>
                <mxCell id="609" value="HIstoricoClinico" style="shape=partialRectangle;html=1;whiteSpace=wrap;connectable=0;top=0;left=0;bottom=0;right=0;overflow=hidden;shadow=1;labelBackgroundColor=none;" parent="219" vertex="1">
                    <mxGeometry x="313" width="92" height="57" as="geometry">
                        <mxRectangle width="92" height="57" as="alternateBounds"/>
                    </mxGeometry>
                </mxCell>
                <mxCell id="606" value="IdVeterinario" style="shape=partialRectangle;html=1;whiteSpace=wrap;connectable=0;top=0;left=0;bottom=0;right=0;overflow=hidden;shadow=1;labelBackgroundColor=none;" parent="219" vertex="1">
                    <mxGeometry x="405" width="92" height="57" as="geometry">
                        <mxRectangle width="92" height="57" as="alternateBounds"/>
                    </mxGeometry>
                </mxCell>
                <mxCell id="603" value="IdPet" style="shape=partialRectangle;html=1;whiteSpace=wrap;connectable=0;top=0;left=0;bottom=0;right=0;overflow=hidden;shadow=1;labelBackgroundColor=none;" parent="219" vertex="1">
                    <mxGeometry x="497" width="92" height="57" as="geometry">
                        <mxRectangle width="92" height="57" as="alternateBounds"/>
                    </mxGeometry>
                </mxCell>
                <mxCell id="227" value="" style="shape=tableRow;horizontal=0;startSize=0;swimlaneHead=0;swimlaneBody=0;top=0;left=0;bottom=0;right=0;collapsible=0;dropTarget=0;fillColor=none;points=[[0,0.5],[1,0.5]];portConstraint=eastwest;shadow=1;labelBackgroundColor=none;strokeColor=#050505;fontColor=#000000;" parent="218" vertex="1">
                    <mxGeometry y="87" width="589" height="57" as="geometry"/>
                </mxCell>
                <mxCell id="228" value="1" style="shape=partialRectangle;html=1;whiteSpace=wrap;connectable=0;top=0;left=0;bottom=0;right=0;overflow=hidden;shadow=1;labelBackgroundColor=none;fillColor=#eeeeee;strokeColor=#36393d;fontColor=#252323;" parent="227" vertex="1">
                    <mxGeometry width="80" height="57" as="geometry">
                        <mxRectangle width="80" height="57" as="alternateBounds"/>
                    </mxGeometry>
                </mxCell>
                <mxCell id="230" value="00001" style="shape=partialRectangle;html=1;whiteSpace=wrap;connectable=0;top=0;left=0;bottom=0;right=0;overflow=hidden;shadow=1;labelBackgroundColor=none;fillColor=#eeeeee;strokeColor=#36393d;fontColor=#252323;" parent="227" vertex="1">
                    <mxGeometry x="80" width="141" height="57" as="geometry">
                        <mxRectangle width="141" height="57" as="alternateBounds"/>
                    </mxGeometry>
                </mxCell>
                <mxCell id="434" value="27/07/23" style="shape=partialRectangle;html=1;whiteSpace=wrap;connectable=0;top=0;left=0;bottom=0;right=0;overflow=hidden;shadow=1;labelBackgroundColor=none;fillColor=#eeeeee;strokeColor=#36393d;fontColor=#252323;" parent="227" vertex="1">
                    <mxGeometry x="221" width="92" height="57" as="geometry">
                        <mxRectangle width="92" height="57" as="alternateBounds"/>
                    </mxGeometry>
                </mxCell>
                <mxCell id="610" value="Fortes dores na pernas" style="shape=partialRectangle;html=1;whiteSpace=wrap;connectable=0;top=0;left=0;bottom=0;right=0;overflow=hidden;shadow=1;labelBackgroundColor=none;fillColor=#eeeeee;strokeColor=#36393d;fontColor=#252323;" parent="227" vertex="1">
                    <mxGeometry x="313" width="92" height="57" as="geometry">
                        <mxRectangle width="92" height="57" as="alternateBounds"/>
                    </mxGeometry>
                </mxCell>
                <mxCell id="607" value="4" style="shape=partialRectangle;html=1;whiteSpace=wrap;connectable=0;top=0;left=0;bottom=0;right=0;overflow=hidden;shadow=1;labelBackgroundColor=none;fillColor=#eeeeee;strokeColor=#36393d;fontColor=#252323;" parent="227" vertex="1">
                    <mxGeometry x="405" width="92" height="57" as="geometry">
                        <mxRectangle width="92" height="57" as="alternateBounds"/>
                    </mxGeometry>
                </mxCell>
                <mxCell id="604" value="3" style="shape=partialRectangle;html=1;whiteSpace=wrap;connectable=0;top=0;left=0;bottom=0;right=0;overflow=hidden;shadow=1;labelBackgroundColor=none;fillColor=#eeeeee;strokeColor=#36393d;fontColor=#252323;" parent="227" vertex="1">
                    <mxGeometry x="497" width="92" height="57" as="geometry">
                        <mxRectangle width="92" height="57" as="alternateBounds"/>
                    </mxGeometry>
                </mxCell>
                <mxCell id="223" value="" style="shape=tableRow;horizontal=0;startSize=0;swimlaneHead=0;swimlaneBody=0;top=0;left=0;bottom=0;right=0;collapsible=0;dropTarget=0;fillColor=none;points=[[0,0.5],[1,0.5]];portConstraint=eastwest;shadow=1;labelBackgroundColor=none;strokeColor=#050505;fontColor=#000000;" parent="218" vertex="1">
                    <mxGeometry y="144" width="589" height="56" as="geometry"/>
                </mxCell>
                <mxCell id="224" value="2" style="shape=partialRectangle;html=1;whiteSpace=wrap;connectable=0;top=0;left=0;bottom=0;right=0;overflow=hidden;shadow=1;labelBackgroundColor=none;fillColor=#eeeeee;strokeColor=#36393d;fontColor=#252323;" parent="223" vertex="1">
                    <mxGeometry width="80" height="56" as="geometry">
                        <mxRectangle width="80" height="56" as="alternateBounds"/>
                    </mxGeometry>
                </mxCell>
                <mxCell id="226" value="00002" style="shape=partialRectangle;html=1;whiteSpace=wrap;connectable=0;top=0;left=0;bottom=0;right=0;overflow=hidden;shadow=1;labelBackgroundColor=none;fillColor=#eeeeee;strokeColor=#36393d;fontColor=#252323;" parent="223" vertex="1">
                    <mxGeometry x="80" width="141" height="56" as="geometry">
                        <mxRectangle width="141" height="56" as="alternateBounds"/>
                    </mxGeometry>
                </mxCell>
                <mxCell id="435" value="01/08/23" style="shape=partialRectangle;html=1;whiteSpace=wrap;connectable=0;top=0;left=0;bottom=0;right=0;overflow=hidden;shadow=1;labelBackgroundColor=none;fillColor=#eeeeee;strokeColor=#36393d;fontColor=#252323;" parent="223" vertex="1">
                    <mxGeometry x="221" width="92" height="56" as="geometry">
                        <mxRectangle width="92" height="56" as="alternateBounds"/>
                    </mxGeometry>
                </mxCell>
                <mxCell id="611" value="Gato Ficou cego de um olho apos brigar com cachorro" style="shape=partialRectangle;html=1;whiteSpace=wrap;connectable=0;top=0;left=0;bottom=0;right=0;overflow=hidden;shadow=1;labelBackgroundColor=none;fillColor=#eeeeee;strokeColor=#36393d;fontColor=#252323;" parent="223" vertex="1">
                    <mxGeometry x="313" width="92" height="56" as="geometry">
                        <mxRectangle width="92" height="56" as="alternateBounds"/>
                    </mxGeometry>
                </mxCell>
                <mxCell id="608" value="2" style="shape=partialRectangle;html=1;whiteSpace=wrap;connectable=0;top=0;left=0;bottom=0;right=0;overflow=hidden;shadow=1;labelBackgroundColor=none;fillColor=#eeeeee;strokeColor=#36393d;fontColor=#252323;" parent="223" vertex="1">
                    <mxGeometry x="405" width="92" height="56" as="geometry">
                        <mxRectangle width="92" height="56" as="alternateBounds"/>
                    </mxGeometry>
                </mxCell>
                <mxCell id="605" value="1" style="shape=partialRectangle;html=1;whiteSpace=wrap;connectable=0;top=0;left=0;bottom=0;right=0;overflow=hidden;shadow=1;labelBackgroundColor=none;fillColor=#eeeeee;strokeColor=#36393d;fontColor=#252323;" parent="223" vertex="1">
                    <mxGeometry x="497" width="92" height="56" as="geometry">
                        <mxRectangle width="92" height="56" as="alternateBounds"/>
                    </mxGeometry>
                </mxCell>
                <mxCell id="640" style="shape=tableRow;horizontal=0;startSize=0;swimlaneHead=0;swimlaneBody=0;top=0;left=0;bottom=0;right=0;collapsible=0;dropTarget=0;fillColor=none;points=[[0,0.5],[1,0.5]];portConstraint=eastwest;shadow=1;labelBackgroundColor=none;strokeColor=#050505;fontColor=#000000;" parent="218" vertex="1">
                    <mxGeometry y="200" width="589" height="56" as="geometry"/>
                </mxCell>
                <mxCell id="641" value="3" style="shape=partialRectangle;html=1;whiteSpace=wrap;connectable=0;top=0;left=0;bottom=0;right=0;overflow=hidden;shadow=1;labelBackgroundColor=none;fillColor=#eeeeee;strokeColor=#36393d;fontColor=#252323;" parent="640" vertex="1">
                    <mxGeometry width="80" height="56" as="geometry">
                        <mxRectangle width="80" height="56" as="alternateBounds"/>
                    </mxGeometry>
                </mxCell>
                <mxCell id="642" value="00003" style="shape=partialRectangle;html=1;whiteSpace=wrap;connectable=0;top=0;left=0;bottom=0;right=0;overflow=hidden;shadow=1;labelBackgroundColor=none;fillColor=#eeeeee;strokeColor=#36393d;fontColor=#252323;" parent="640" vertex="1">
                    <mxGeometry x="80" width="141" height="56" as="geometry">
                        <mxRectangle width="141" height="56" as="alternateBounds"/>
                    </mxGeometry>
                </mxCell>
                <mxCell id="643" value="14/08/23" style="shape=partialRectangle;html=1;whiteSpace=wrap;connectable=0;top=0;left=0;bottom=0;right=0;overflow=hidden;shadow=1;labelBackgroundColor=none;fillColor=#eeeeee;strokeColor=#36393d;fontColor=#252323;" parent="640" vertex="1">
                    <mxGeometry x="221" width="92" height="56" as="geometry">
                        <mxRectangle width="92" height="56" as="alternateBounds"/>
                    </mxGeometry>
                </mxCell>
                <mxCell id="644" value="Ingeriu aluminio" style="shape=partialRectangle;html=1;whiteSpace=wrap;connectable=0;top=0;left=0;bottom=0;right=0;overflow=hidden;shadow=1;labelBackgroundColor=none;fillColor=#eeeeee;strokeColor=#36393d;fontColor=#252323;" parent="640" vertex="1">
                    <mxGeometry x="313" width="92" height="56" as="geometry">
                        <mxRectangle width="92" height="56" as="alternateBounds"/>
                    </mxGeometry>
                </mxCell>
                <mxCell id="645" value="2" style="shape=partialRectangle;html=1;whiteSpace=wrap;connectable=0;top=0;left=0;bottom=0;right=0;overflow=hidden;shadow=1;labelBackgroundColor=none;fillColor=#eeeeee;strokeColor=#36393d;fontColor=#252323;" parent="640" vertex="1">
                    <mxGeometry x="405" width="92" height="56" as="geometry">
                        <mxRectangle width="92" height="56" as="alternateBounds"/>
                    </mxGeometry>
                </mxCell>
                <mxCell id="646" value="2" style="shape=partialRectangle;html=1;whiteSpace=wrap;connectable=0;top=0;left=0;bottom=0;right=0;overflow=hidden;shadow=1;labelBackgroundColor=none;fillColor=#eeeeee;strokeColor=#36393d;fontColor=#252323;" parent="640" vertex="1">
                    <mxGeometry x="497" width="92" height="56" as="geometry">
                        <mxRectangle width="92" height="56" as="alternateBounds"/>
                    </mxGeometry>
                </mxCell>
                <mxCell id="232" value="&lt;div&gt;Uma clínica veterinária deseja cadastrar os pets que são atendidos em seu local.&lt;/div&gt;&lt;div&gt;&lt;br&gt;&lt;/div&gt;&lt;div&gt;- a clínica contém um endereço;&lt;/div&gt;&lt;div&gt;- os pets deverão ter nome, data de nascimento, tipo de pet;&lt;/div&gt;&lt;div&gt;- os pets deverão ter raça;&lt;/div&gt;&lt;div&gt;- os pets deverão ter donos;&lt;/div&gt;&lt;div&gt;- a clínica deseja cadastrar seus veterinários e todo atendimento de pet será feito por um veterinário;&lt;/div&gt;&lt;div&gt;&lt;br&gt;&lt;/div&gt;&lt;div&gt;DML&lt;/div&gt;&lt;div&gt;&lt;br&gt;&lt;/div&gt;&lt;div&gt;- cada atendimento deve registrar qual veterinário atendeu, qual pet foi atendido, descrição da consulta e data da consulta&lt;/div&gt;&lt;div&gt;&lt;br&gt;&lt;/div&gt;&lt;div&gt;DQL&lt;/div&gt;&lt;div&gt;&lt;br&gt;&lt;/div&gt;&lt;div&gt;- listar todos os veterinários (nome e CRMV) de uma clínica (razão social)&lt;/div&gt;&lt;div&gt;- listar todas as raças que começam com a letra S&lt;/div&gt;&lt;div&gt;- listar todos os tipos de pet que terminam com a letra O&lt;/div&gt;&lt;div&gt;- listar todos os pets mostrando os nomes dos seus donos&lt;/div&gt;&lt;div&gt;- listar todos os atendimentos mostrando o nome do veterinário que atendeu, o nome, a raça e o tipo do pet que foi atendido, o nome do dono do pet e o nome da clínica onde o pet foi atendido&lt;/div&gt;&lt;div&gt;&lt;br&gt;&lt;/div&gt;" style="text;whiteSpace=wrap;html=1;fillColor=#f5f5f5;fontColor=#333333;strokeColor=#666666;" parent="1" vertex="1">
                    <mxGeometry x="124" y="-268" width="579" height="327" as="geometry"/>
                </mxCell>
                <mxCell id="252" value="Clinica" style="shape=table;startSize=30;container=1;collapsible=1;childLayout=tableLayout;fixedRows=1;rowLines=0;fontStyle=1;align=center;resizeLast=1;" parent="1" vertex="1">
                    <mxGeometry x="-237" y="958" width="180" height="150" as="geometry"/>
                </mxCell>
                <mxCell id="253" value="" style="shape=tableRow;horizontal=0;startSize=0;swimlaneHead=0;swimlaneBody=0;fillColor=none;collapsible=0;dropTarget=0;points=[[0,0.5],[1,0.5]];portConstraint=eastwest;top=0;left=0;right=0;bottom=0;" parent="252" vertex="1">
                    <mxGeometry y="30" width="180" height="30" as="geometry"/>
                </mxCell>
                <mxCell id="254" value="PK" style="shape=partialRectangle;connectable=0;fillColor=none;top=0;left=0;bottom=0;right=0;fontStyle=1;overflow=hidden;" parent="253" vertex="1">
                    <mxGeometry width="60" height="30" as="geometry">
                        <mxRectangle width="60" height="30" as="alternateBounds"/>
                    </mxGeometry>
                </mxCell>
                <mxCell id="255" value="IdClinica" style="shape=partialRectangle;connectable=0;fillColor=none;top=0;left=0;bottom=0;right=0;align=left;spacingLeft=6;fontStyle=5;overflow=hidden;" parent="253" vertex="1">
                    <mxGeometry x="60" width="120" height="30" as="geometry">
                        <mxRectangle width="120" height="30" as="alternateBounds"/>
                    </mxGeometry>
                </mxCell>
                <mxCell id="256" value="" style="shape=tableRow;horizontal=0;startSize=0;swimlaneHead=0;swimlaneBody=0;fillColor=none;collapsible=0;dropTarget=0;points=[[0,0.5],[1,0.5]];portConstraint=eastwest;top=0;left=0;right=0;bottom=1;" parent="252" vertex="1">
                    <mxGeometry y="60" width="180" height="30" as="geometry"/>
                </mxCell>
                <mxCell id="257" value="FK" style="shape=partialRectangle;connectable=0;fillColor=none;top=0;left=0;bottom=0;right=0;fontStyle=1;overflow=hidden;" parent="256" vertex="1">
                    <mxGeometry width="60" height="30" as="geometry">
                        <mxRectangle width="60" height="30" as="alternateBounds"/>
                    </mxGeometry>
                </mxCell>
                <mxCell id="258" value="IdEndereco" style="shape=partialRectangle;connectable=0;fillColor=none;top=0;left=0;bottom=0;right=0;align=left;spacingLeft=6;fontStyle=1;overflow=hidden;" parent="256" vertex="1">
                    <mxGeometry x="60" width="120" height="30" as="geometry">
                        <mxRectangle width="120" height="30" as="alternateBounds"/>
                    </mxGeometry>
                </mxCell>
                <mxCell id="935" value="" style="shape=tableRow;horizontal=0;startSize=0;swimlaneHead=0;swimlaneBody=0;fillColor=none;collapsible=0;dropTarget=0;points=[[0,0.5],[1,0.5]];portConstraint=eastwest;top=0;left=0;right=0;bottom=0;" parent="252" vertex="1">
                    <mxGeometry y="90" width="180" height="30" as="geometry"/>
                </mxCell>
                <mxCell id="936" value="" style="shape=partialRectangle;connectable=0;fillColor=none;top=0;left=0;bottom=0;right=0;editable=1;overflow=hidden;" parent="935" vertex="1">
                    <mxGeometry width="60" height="30" as="geometry">
                        <mxRectangle width="60" height="30" as="alternateBounds"/>
                    </mxGeometry>
                </mxCell>
                <mxCell id="937" value="RazaoSocia" style="shape=partialRectangle;connectable=0;fillColor=none;top=0;left=0;bottom=0;right=0;align=left;spacingLeft=6;overflow=hidden;" parent="935" vertex="1">
                    <mxGeometry x="60" width="120" height="30" as="geometry">
                        <mxRectangle width="120" height="30" as="alternateBounds"/>
                    </mxGeometry>
                </mxCell>
                <mxCell id="259" value="" style="shape=tableRow;horizontal=0;startSize=0;swimlaneHead=0;swimlaneBody=0;fillColor=none;collapsible=0;dropTarget=0;points=[[0,0.5],[1,0.5]];portConstraint=eastwest;top=0;left=0;right=0;bottom=0;" parent="252" vertex="1">
                    <mxGeometry y="120" width="180" height="30" as="geometry"/>
                </mxCell>
                <mxCell id="260" value="" style="shape=partialRectangle;connectable=0;fillColor=none;top=0;left=0;bottom=0;right=0;editable=1;overflow=hidden;" parent="259" vertex="1">
                    <mxGeometry width="60" height="30" as="geometry">
                        <mxRectangle width="60" height="30" as="alternateBounds"/>
                    </mxGeometry>
                </mxCell>
                <mxCell id="261" value="CNPJ" style="shape=partialRectangle;connectable=0;fillColor=none;top=0;left=0;bottom=0;right=0;align=left;spacingLeft=6;overflow=hidden;" parent="259" vertex="1">
                    <mxGeometry x="60" width="120" height="30" as="geometry">
                        <mxRectangle width="120" height="30" as="alternateBounds"/>
                    </mxGeometry>
                </mxCell>
                <mxCell id="287" value="TipoPet" style="shape=table;startSize=30;container=1;collapsible=1;childLayout=tableLayout;fixedRows=1;rowLines=0;fontStyle=1;align=center;resizeLast=1;" parent="1" vertex="1">
                    <mxGeometry x="864" y="948.5" width="180" height="90" as="geometry"/>
                </mxCell>
                <mxCell id="291" value="" style="shape=tableRow;horizontal=0;startSize=0;swimlaneHead=0;swimlaneBody=0;fillColor=none;collapsible=0;dropTarget=0;points=[[0,0.5],[1,0.5]];portConstraint=eastwest;top=0;left=0;right=0;bottom=1;" parent="287" vertex="1">
                    <mxGeometry y="30" width="180" height="30" as="geometry"/>
                </mxCell>
                <mxCell id="292" value="PK" style="shape=partialRectangle;connectable=0;fillColor=none;top=0;left=0;bottom=0;right=0;fontStyle=1;overflow=hidden;" parent="291" vertex="1">
                    <mxGeometry width="60" height="30" as="geometry">
                        <mxRectangle width="60" height="30" as="alternateBounds"/>
                    </mxGeometry>
                </mxCell>
                <mxCell id="293" value="IdTipoPet" style="shape=partialRectangle;connectable=0;fillColor=none;top=0;left=0;bottom=0;right=0;align=left;spacingLeft=6;fontStyle=5;overflow=hidden;" parent="291" vertex="1">
                    <mxGeometry x="60" width="120" height="30" as="geometry">
                        <mxRectangle width="120" height="30" as="alternateBounds"/>
                    </mxGeometry>
                </mxCell>
                <mxCell id="294" value="" style="shape=tableRow;horizontal=0;startSize=0;swimlaneHead=0;swimlaneBody=0;fillColor=none;collapsible=0;dropTarget=0;points=[[0,0.5],[1,0.5]];portConstraint=eastwest;top=0;left=0;right=0;bottom=0;" parent="287" vertex="1">
                    <mxGeometry y="60" width="180" height="30" as="geometry"/>
                </mxCell>
                <mxCell id="295" value="" style="shape=partialRectangle;connectable=0;fillColor=none;top=0;left=0;bottom=0;right=0;editable=1;overflow=hidden;" parent="294" vertex="1">
                    <mxGeometry width="60" height="30" as="geometry">
                        <mxRectangle width="60" height="30" as="alternateBounds"/>
                    </mxGeometry>
                </mxCell>
                <mxCell id="296" value="Tipo" style="shape=partialRectangle;connectable=0;fillColor=none;top=0;left=0;bottom=0;right=0;align=left;spacingLeft=6;overflow=hidden;" parent="294" vertex="1">
                    <mxGeometry x="60" width="120" height="30" as="geometry">
                        <mxRectangle width="120" height="30" as="alternateBounds"/>
                    </mxGeometry>
                </mxCell>
                <mxCell id="403" value="Raca" style="shape=table;startSize=30;container=1;collapsible=1;childLayout=tableLayout;fixedRows=1;rowLines=0;fontStyle=1;align=center;resizeLast=1;" parent="1" vertex="1">
                    <mxGeometry x="864" y="1069.5" width="180" height="90" as="geometry"/>
                </mxCell>
                <mxCell id="404" value="" style="shape=tableRow;horizontal=0;startSize=0;swimlaneHead=0;swimlaneBody=0;fillColor=none;collapsible=0;dropTarget=0;points=[[0,0.5],[1,0.5]];portConstraint=eastwest;top=0;left=0;right=0;bottom=1;" parent="403" vertex="1">
                    <mxGeometry y="30" width="180" height="30" as="geometry"/>
                </mxCell>
                <mxCell id="405" value="PK" style="shape=partialRectangle;connectable=0;fillColor=none;top=0;left=0;bottom=0;right=0;fontStyle=1;overflow=hidden;" parent="404" vertex="1">
                    <mxGeometry width="30" height="30" as="geometry">
                        <mxRectangle width="30" height="30" as="alternateBounds"/>
                    </mxGeometry>
                </mxCell>
                <mxCell id="406" value="IdRaca" style="shape=partialRectangle;connectable=0;fillColor=none;top=0;left=0;bottom=0;right=0;align=left;spacingLeft=6;fontStyle=5;overflow=hidden;" parent="404" vertex="1">
                    <mxGeometry x="30" width="150" height="30" as="geometry">
                        <mxRectangle width="150" height="30" as="alternateBounds"/>
                    </mxGeometry>
                </mxCell>
                <mxCell id="407" value="" style="shape=tableRow;horizontal=0;startSize=0;swimlaneHead=0;swimlaneBody=0;fillColor=none;collapsible=0;dropTarget=0;points=[[0,0.5],[1,0.5]];portConstraint=eastwest;top=0;left=0;right=0;bottom=0;" parent="403" vertex="1">
                    <mxGeometry y="60" width="180" height="30" as="geometry"/>
                </mxCell>
                <mxCell id="408" value="" style="shape=partialRectangle;connectable=0;fillColor=none;top=0;left=0;bottom=0;right=0;editable=1;overflow=hidden;" parent="407" vertex="1">
                    <mxGeometry width="30" height="30" as="geometry">
                        <mxRectangle width="30" height="30" as="alternateBounds"/>
                    </mxGeometry>
                </mxCell>
                <mxCell id="409" value="Raca" style="shape=partialRectangle;connectable=0;fillColor=none;top=0;left=0;bottom=0;right=0;align=left;spacingLeft=6;overflow=hidden;" parent="407" vertex="1">
                    <mxGeometry x="30" width="150" height="30" as="geometry">
                        <mxRectangle width="150" height="30" as="alternateBounds"/>
                    </mxGeometry>
                </mxCell>
                <mxCell id="444" value="Pet" style="shape=table;startSize=30;container=1;collapsible=0;childLayout=tableLayout;fontStyle=1;align=center;shadow=1;labelBackgroundColor=none;" parent="1" vertex="1">
                    <mxGeometry x="-42.5" y="1986" width="810" height="254" as="geometry"/>
                </mxCell>
                <mxCell id="445" value="" style="shape=tableRow;horizontal=0;startSize=0;swimlaneHead=0;swimlaneBody=0;top=0;left=0;bottom=0;right=0;collapsible=0;dropTarget=0;fillColor=none;points=[[0,0.5],[1,0.5]];portConstraint=eastwest;shadow=1;labelBackgroundColor=none;strokeColor=#050505;fontColor=#000000;" parent="444" vertex="1">
                    <mxGeometry y="30" width="810" height="57" as="geometry"/>
                </mxCell>
                <mxCell id="446" value="IdPet" style="shape=partialRectangle;html=1;whiteSpace=wrap;connectable=0;top=0;left=0;bottom=0;right=0;overflow=hidden;shadow=1;labelBackgroundColor=none;" parent="445" vertex="1">
                    <mxGeometry width="80" height="57" as="geometry">
                        <mxRectangle width="80" height="57" as="alternateBounds"/>
                    </mxGeometry>
                </mxCell>
                <mxCell id="447" value="Nome" style="shape=partialRectangle;html=1;whiteSpace=wrap;connectable=0;top=0;left=0;bottom=0;right=0;overflow=hidden;shadow=1;labelBackgroundColor=none;" parent="445" vertex="1">
                    <mxGeometry x="80" width="70" height="57" as="geometry">
                        <mxRectangle width="70" height="57" as="alternateBounds"/>
                    </mxGeometry>
                </mxCell>
                <mxCell id="448" value="DataNascimento" style="shape=partialRectangle;html=1;whiteSpace=wrap;connectable=0;top=0;left=0;bottom=0;right=0;overflow=hidden;shadow=1;labelBackgroundColor=none;" parent="445" vertex="1">
                    <mxGeometry x="150" width="220" height="57" as="geometry">
                        <mxRectangle width="220" height="57" as="alternateBounds"/>
                    </mxGeometry>
                </mxCell>
                <mxCell id="570" value="IdTipoPet" style="shape=partialRectangle;html=1;whiteSpace=wrap;connectable=0;top=0;left=0;bottom=0;right=0;overflow=hidden;shadow=1;labelBackgroundColor=none;" parent="445" vertex="1">
                    <mxGeometry x="370" width="220" height="57" as="geometry">
                        <mxRectangle width="220" height="57" as="alternateBounds"/>
                    </mxGeometry>
                </mxCell>
                <mxCell id="575" value="IdRaca" style="shape=partialRectangle;html=1;whiteSpace=wrap;connectable=0;top=0;left=0;bottom=0;right=0;overflow=hidden;shadow=1;labelBackgroundColor=none;" parent="445" vertex="1">
                    <mxGeometry x="590" width="220" height="57" as="geometry">
                        <mxRectangle width="220" height="57" as="alternateBounds"/>
                    </mxGeometry>
                </mxCell>
                <mxCell id="449" value="" style="shape=tableRow;horizontal=0;startSize=0;swimlaneHead=0;swimlaneBody=0;top=0;left=0;bottom=0;right=0;collapsible=0;dropTarget=0;fillColor=none;points=[[0,0.5],[1,0.5]];portConstraint=eastwest;shadow=1;labelBackgroundColor=none;strokeColor=#050505;fontColor=#000000;" parent="444" vertex="1">
                    <mxGeometry y="87" width="810" height="56" as="geometry"/>
                </mxCell>
                <mxCell id="450" value="1" style="shape=partialRectangle;html=1;whiteSpace=wrap;connectable=0;top=0;left=0;bottom=0;right=0;overflow=hidden;shadow=1;labelBackgroundColor=none;fillColor=#eeeeee;strokeColor=#36393d;fontColor=#252323;" parent="449" vertex="1">
                    <mxGeometry width="80" height="56" as="geometry">
                        <mxRectangle width="80" height="56" as="alternateBounds"/>
                    </mxGeometry>
                </mxCell>
                <mxCell id="451" value="Xxu" style="shape=partialRectangle;html=1;whiteSpace=wrap;connectable=0;top=0;left=0;bottom=0;right=0;overflow=hidden;shadow=1;labelBackgroundColor=none;fillColor=#eeeeee;strokeColor=#36393d;fontColor=#252323;" parent="449" vertex="1">
                    <mxGeometry x="80" width="70" height="56" as="geometry">
                        <mxRectangle width="70" height="56" as="alternateBounds"/>
                    </mxGeometry>
                </mxCell>
                <mxCell id="452" value="1/01/1999" style="shape=partialRectangle;html=1;whiteSpace=wrap;connectable=0;top=0;left=0;bottom=0;right=0;overflow=hidden;shadow=1;labelBackgroundColor=none;fillColor=#eeeeee;strokeColor=#36393d;fontColor=#252323;" parent="449" vertex="1">
                    <mxGeometry x="150" width="220" height="56" as="geometry">
                        <mxRectangle width="220" height="56" as="alternateBounds"/>
                    </mxGeometry>
                </mxCell>
                <mxCell id="571" value="3" style="shape=partialRectangle;html=1;whiteSpace=wrap;connectable=0;top=0;left=0;bottom=0;right=0;overflow=hidden;shadow=1;labelBackgroundColor=none;fillColor=#eeeeee;strokeColor=#36393d;fontColor=#252323;" parent="449" vertex="1">
                    <mxGeometry x="370" width="220" height="56" as="geometry">
                        <mxRectangle width="220" height="56" as="alternateBounds"/>
                    </mxGeometry>
                </mxCell>
                <mxCell id="576" value="2" style="shape=partialRectangle;html=1;whiteSpace=wrap;connectable=0;top=0;left=0;bottom=0;right=0;overflow=hidden;shadow=1;labelBackgroundColor=none;fillColor=#eeeeee;strokeColor=#36393d;fontColor=#252323;" parent="449" vertex="1">
                    <mxGeometry x="590" width="220" height="56" as="geometry">
                        <mxRectangle width="220" height="56" as="alternateBounds"/>
                    </mxGeometry>
                </mxCell>
                <mxCell id="453" value="" style="shape=tableRow;horizontal=0;startSize=0;swimlaneHead=0;swimlaneBody=0;top=0;left=0;bottom=0;right=0;collapsible=0;dropTarget=0;fillColor=none;points=[[0,0.5],[1,0.5]];portConstraint=eastwest;shadow=1;labelBackgroundColor=none;strokeColor=#050505;fontColor=#000000;" parent="444" vertex="1">
                    <mxGeometry y="143" width="810" height="54" as="geometry"/>
                </mxCell>
                <mxCell id="454" value="2" style="shape=partialRectangle;html=1;whiteSpace=wrap;connectable=0;top=0;left=0;bottom=0;right=0;overflow=hidden;shadow=1;labelBackgroundColor=none;fillColor=#eeeeee;strokeColor=#36393d;fontColor=#252323;" parent="453" vertex="1">
                    <mxGeometry width="80" height="54" as="geometry">
                        <mxRectangle width="80" height="54" as="alternateBounds"/>
                    </mxGeometry>
                </mxCell>
                <mxCell id="455" value="Xaxa" style="shape=partialRectangle;html=1;whiteSpace=wrap;connectable=0;top=0;left=0;bottom=0;right=0;overflow=hidden;shadow=1;labelBackgroundColor=none;fillColor=#eeeeee;strokeColor=#36393d;fontColor=#252323;" parent="453" vertex="1">
                    <mxGeometry x="80" width="70" height="54" as="geometry">
                        <mxRectangle width="70" height="54" as="alternateBounds"/>
                    </mxGeometry>
                </mxCell>
                <mxCell id="456" value="15/06/210" style="shape=partialRectangle;html=1;whiteSpace=wrap;connectable=0;top=0;left=0;bottom=0;right=0;overflow=hidden;shadow=1;labelBackgroundColor=none;fillColor=#eeeeee;strokeColor=#36393d;fontColor=#252323;" parent="453" vertex="1">
                    <mxGeometry x="150" width="220" height="54" as="geometry">
                        <mxRectangle width="220" height="54" as="alternateBounds"/>
                    </mxGeometry>
                </mxCell>
                <mxCell id="572" value="2" style="shape=partialRectangle;html=1;whiteSpace=wrap;connectable=0;top=0;left=0;bottom=0;right=0;overflow=hidden;shadow=1;labelBackgroundColor=none;fillColor=#eeeeee;strokeColor=#36393d;fontColor=#252323;" parent="453" vertex="1">
                    <mxGeometry x="370" width="220" height="54" as="geometry">
                        <mxRectangle width="220" height="54" as="alternateBounds"/>
                    </mxGeometry>
                </mxCell>
                <mxCell id="577" value="3" style="shape=partialRectangle;html=1;whiteSpace=wrap;connectable=0;top=0;left=0;bottom=0;right=0;overflow=hidden;shadow=1;labelBackgroundColor=none;fillColor=#eeeeee;strokeColor=#36393d;fontColor=#252323;" parent="453" vertex="1">
                    <mxGeometry x="590" width="220" height="54" as="geometry">
                        <mxRectangle width="220" height="54" as="alternateBounds"/>
                    </mxGeometry>
                </mxCell>
                <mxCell id="457" style="shape=tableRow;horizontal=0;startSize=0;swimlaneHead=0;swimlaneBody=0;top=0;left=0;bottom=0;right=0;collapsible=0;dropTarget=0;fillColor=none;points=[[0,0.5],[1,0.5]];portConstraint=eastwest;shadow=1;labelBackgroundColor=none;strokeColor=#050505;fontColor=#000000;" parent="444" vertex="1">
                    <mxGeometry y="197" width="810" height="57" as="geometry"/>
                </mxCell>
                <mxCell id="458" value="3" style="shape=partialRectangle;html=1;whiteSpace=wrap;connectable=0;top=0;left=0;bottom=0;right=0;overflow=hidden;shadow=1;labelBackgroundColor=none;fillColor=#eeeeee;strokeColor=#36393d;fontColor=#252323;" parent="457" vertex="1">
                    <mxGeometry width="80" height="57" as="geometry">
                        <mxRectangle width="80" height="57" as="alternateBounds"/>
                    </mxGeometry>
                </mxCell>
                <mxCell id="459" value="Salsicha" style="shape=partialRectangle;html=1;whiteSpace=wrap;connectable=0;top=0;left=0;bottom=0;right=0;overflow=hidden;shadow=1;labelBackgroundColor=none;fillColor=#eeeeee;strokeColor=#36393d;fontColor=#252323;" parent="457" vertex="1">
                    <mxGeometry x="80" width="70" height="57" as="geometry">
                        <mxRectangle width="70" height="57" as="alternateBounds"/>
                    </mxGeometry>
                </mxCell>
                <mxCell id="460" value="31/09/2023" style="shape=partialRectangle;html=1;whiteSpace=wrap;connectable=0;top=0;left=0;bottom=0;right=0;overflow=hidden;shadow=1;labelBackgroundColor=none;fillColor=#eeeeee;strokeColor=#36393d;fontColor=#252323;" parent="457" vertex="1">
                    <mxGeometry x="150" width="220" height="57" as="geometry">
                        <mxRectangle width="220" height="57" as="alternateBounds"/>
                    </mxGeometry>
                </mxCell>
                <mxCell id="573" value="1" style="shape=partialRectangle;html=1;whiteSpace=wrap;connectable=0;top=0;left=0;bottom=0;right=0;overflow=hidden;shadow=1;labelBackgroundColor=none;fillColor=#eeeeee;strokeColor=#36393d;fontColor=#252323;" parent="457" vertex="1">
                    <mxGeometry x="370" width="220" height="57" as="geometry">
                        <mxRectangle width="220" height="57" as="alternateBounds"/>
                    </mxGeometry>
                </mxCell>
                <mxCell id="578" value="1" style="shape=partialRectangle;html=1;whiteSpace=wrap;connectable=0;top=0;left=0;bottom=0;right=0;overflow=hidden;shadow=1;labelBackgroundColor=none;fillColor=#eeeeee;strokeColor=#36393d;fontColor=#252323;" parent="457" vertex="1">
                    <mxGeometry x="590" width="220" height="57" as="geometry">
                        <mxRectangle width="220" height="57" as="alternateBounds"/>
                    </mxGeometry>
                </mxCell>
                <mxCell id="518" value="Atendimento" style="shape=table;startSize=30;container=1;collapsible=1;childLayout=tableLayout;fixedRows=1;rowLines=0;fontStyle=1;align=center;resizeLast=1;" parent="1" vertex="1">
                    <mxGeometry x="339" y="967" width="180" height="210" as="geometry"/>
                </mxCell>
                <mxCell id="519" value="" style="shape=tableRow;horizontal=0;startSize=0;swimlaneHead=0;swimlaneBody=0;fillColor=none;collapsible=0;dropTarget=0;points=[[0,0.5],[1,0.5]];portConstraint=eastwest;top=0;left=0;right=0;bottom=0;" parent="518" vertex="1">
                    <mxGeometry y="30" width="180" height="30" as="geometry"/>
                </mxCell>
                <mxCell id="520" value="PK" style="shape=partialRectangle;connectable=0;fillColor=none;top=0;left=0;bottom=0;right=0;fontStyle=1;overflow=hidden;" parent="519" vertex="1">
                    <mxGeometry width="60" height="30" as="geometry">
                        <mxRectangle width="60" height="30" as="alternateBounds"/>
                    </mxGeometry>
                </mxCell>
                <mxCell id="521" value="IdAtendimento" style="shape=partialRectangle;connectable=0;fillColor=none;top=0;left=0;bottom=0;right=0;align=left;spacingLeft=6;fontStyle=5;overflow=hidden;" parent="519" vertex="1">
                    <mxGeometry x="60" width="120" height="30" as="geometry">
                        <mxRectangle width="120" height="30" as="alternateBounds"/>
                    </mxGeometry>
                </mxCell>
                <mxCell id="528" value="" style="shape=tableRow;horizontal=0;startSize=0;swimlaneHead=0;swimlaneBody=0;fillColor=none;collapsible=0;dropTarget=0;points=[[0,0.5],[1,0.5]];portConstraint=eastwest;top=0;left=0;right=0;bottom=0;" parent="518" vertex="1">
                    <mxGeometry y="60" width="180" height="30" as="geometry"/>
                </mxCell>
                <mxCell id="529" value="FK" style="shape=partialRectangle;connectable=0;fillColor=none;top=0;left=0;bottom=0;right=0;fontStyle=1;overflow=hidden;" parent="528" vertex="1">
                    <mxGeometry width="60" height="30" as="geometry">
                        <mxRectangle width="60" height="30" as="alternateBounds"/>
                    </mxGeometry>
                </mxCell>
                <mxCell id="530" value="IdVeterinario" style="shape=partialRectangle;connectable=0;fillColor=none;top=0;left=0;bottom=0;right=0;align=left;spacingLeft=6;fontStyle=1;overflow=hidden;" parent="528" vertex="1">
                    <mxGeometry x="60" width="120" height="30" as="geometry">
                        <mxRectangle width="120" height="30" as="alternateBounds"/>
                    </mxGeometry>
                </mxCell>
                <mxCell id="522" value="" style="shape=tableRow;horizontal=0;startSize=0;swimlaneHead=0;swimlaneBody=0;fillColor=none;collapsible=0;dropTarget=0;points=[[0,0.5],[1,0.5]];portConstraint=eastwest;top=0;left=0;right=0;bottom=1;" parent="518" vertex="1">
                    <mxGeometry y="90" width="180" height="30" as="geometry"/>
                </mxCell>
                <mxCell id="523" value="FK" style="shape=partialRectangle;connectable=0;fillColor=none;top=0;left=0;bottom=0;right=0;fontStyle=1;overflow=hidden;" parent="522" vertex="1">
                    <mxGeometry width="60" height="30" as="geometry">
                        <mxRectangle width="60" height="30" as="alternateBounds"/>
                    </mxGeometry>
                </mxCell>
                <mxCell id="524" value="IdPet" style="shape=partialRectangle;connectable=0;fillColor=none;top=0;left=0;bottom=0;right=0;align=left;spacingLeft=6;fontStyle=1;overflow=hidden;" parent="522" vertex="1">
                    <mxGeometry x="60" width="120" height="30" as="geometry">
                        <mxRectangle width="120" height="30" as="alternateBounds"/>
                    </mxGeometry>
                </mxCell>
                <mxCell id="525" value="" style="shape=tableRow;horizontal=0;startSize=0;swimlaneHead=0;swimlaneBody=0;fillColor=none;collapsible=0;dropTarget=0;points=[[0,0.5],[1,0.5]];portConstraint=eastwest;top=0;left=0;right=0;bottom=0;" parent="518" vertex="1">
                    <mxGeometry y="120" width="180" height="30" as="geometry"/>
                </mxCell>
                <mxCell id="526" value="" style="shape=partialRectangle;connectable=0;fillColor=none;top=0;left=0;bottom=0;right=0;editable=1;overflow=hidden;" parent="525" vertex="1">
                    <mxGeometry width="60" height="30" as="geometry">
                        <mxRectangle width="60" height="30" as="alternateBounds"/>
                    </mxGeometry>
                </mxCell>
                <mxCell id="527" value="Protocolo" style="shape=partialRectangle;connectable=0;fillColor=none;top=0;left=0;bottom=0;right=0;align=left;spacingLeft=6;overflow=hidden;" parent="525" vertex="1">
                    <mxGeometry x="60" width="120" height="30" as="geometry">
                        <mxRectangle width="120" height="30" as="alternateBounds"/>
                    </mxGeometry>
                </mxCell>
                <mxCell id="535" value="" style="shape=tableRow;horizontal=0;startSize=0;swimlaneHead=0;swimlaneBody=0;fillColor=none;collapsible=0;dropTarget=0;points=[[0,0.5],[1,0.5]];portConstraint=eastwest;top=0;left=0;right=0;bottom=0;" parent="518" vertex="1">
                    <mxGeometry y="150" width="180" height="30" as="geometry"/>
                </mxCell>
                <mxCell id="536" value="" style="shape=partialRectangle;connectable=0;fillColor=none;top=0;left=0;bottom=0;right=0;editable=1;overflow=hidden;" parent="535" vertex="1">
                    <mxGeometry width="60" height="30" as="geometry">
                        <mxRectangle width="60" height="30" as="alternateBounds"/>
                    </mxGeometry>
                </mxCell>
                <mxCell id="537" value="DataAtendimento" style="shape=partialRectangle;connectable=0;fillColor=none;top=0;left=0;bottom=0;right=0;align=left;spacingLeft=6;overflow=hidden;" parent="535" vertex="1">
                    <mxGeometry x="60" width="120" height="30" as="geometry">
                        <mxRectangle width="120" height="30" as="alternateBounds"/>
                    </mxGeometry>
                </mxCell>
                <mxCell id="538" value="" style="shape=tableRow;horizontal=0;startSize=0;swimlaneHead=0;swimlaneBody=0;fillColor=none;collapsible=0;dropTarget=0;points=[[0,0.5],[1,0.5]];portConstraint=eastwest;top=0;left=0;right=0;bottom=0;" parent="518" vertex="1">
                    <mxGeometry y="180" width="180" height="30" as="geometry"/>
                </mxCell>
                <mxCell id="539" value="" style="shape=partialRectangle;connectable=0;fillColor=none;top=0;left=0;bottom=0;right=0;editable=1;overflow=hidden;" parent="538" vertex="1">
                    <mxGeometry width="60" height="30" as="geometry">
                        <mxRectangle width="60" height="30" as="alternateBounds"/>
                    </mxGeometry>
                </mxCell>
                <mxCell id="540" value="Historico Clinico" style="shape=partialRectangle;connectable=0;fillColor=none;top=0;left=0;bottom=0;right=0;align=left;spacingLeft=6;overflow=hidden;" parent="538" vertex="1">
                    <mxGeometry x="60" width="120" height="30" as="geometry">
                        <mxRectangle width="120" height="30" as="alternateBounds"/>
                    </mxGeometry>
                </mxCell>
                <mxCell id="580" value="Clinica" style="shape=table;startSize=30;container=1;collapsible=0;childLayout=tableLayout;fontStyle=1;align=center;shadow=1;labelBackgroundColor=none;" parent="1" vertex="1">
                    <mxGeometry x="649" y="2280" width="503" height="256" as="geometry"/>
                </mxCell>
                <mxCell id="581" value="" style="shape=tableRow;horizontal=0;startSize=0;swimlaneHead=0;swimlaneBody=0;top=0;left=0;bottom=0;right=0;collapsible=0;dropTarget=0;fillColor=none;points=[[0,0.5],[1,0.5]];portConstraint=eastwest;shadow=1;labelBackgroundColor=none;strokeColor=#050505;fontColor=#000000;" parent="580" vertex="1">
                    <mxGeometry y="30" width="503" height="57" as="geometry"/>
                </mxCell>
                <mxCell id="582" value="IdClinica" style="shape=partialRectangle;html=1;whiteSpace=wrap;connectable=0;top=0;left=0;bottom=0;right=0;overflow=hidden;shadow=1;labelBackgroundColor=none;" parent="581" vertex="1">
                    <mxGeometry width="80" height="57" as="geometry">
                        <mxRectangle width="80" height="57" as="alternateBounds"/>
                    </mxGeometry>
                </mxCell>
                <mxCell id="923" value="RazaoSocial" style="shape=partialRectangle;html=1;whiteSpace=wrap;connectable=0;top=0;left=0;bottom=0;right=0;overflow=hidden;shadow=1;labelBackgroundColor=none;" parent="581" vertex="1">
                    <mxGeometry x="80" width="141" height="57" as="geometry">
                        <mxRectangle width="141" height="57" as="alternateBounds"/>
                    </mxGeometry>
                </mxCell>
                <mxCell id="928" value="CNPJ" style="shape=partialRectangle;html=1;whiteSpace=wrap;connectable=0;top=0;left=0;bottom=0;right=0;overflow=hidden;shadow=1;labelBackgroundColor=none;" parent="581" vertex="1">
                    <mxGeometry x="221" width="141" height="57" as="geometry">
                        <mxRectangle width="141" height="57" as="alternateBounds"/>
                    </mxGeometry>
                </mxCell>
                <mxCell id="951" value="IdEndereco" style="shape=partialRectangle;html=1;whiteSpace=wrap;connectable=0;top=0;left=0;bottom=0;right=0;overflow=hidden;shadow=1;labelBackgroundColor=none;" parent="581" vertex="1">
                    <mxGeometry x="362" width="141" height="57" as="geometry">
                        <mxRectangle width="141" height="57" as="alternateBounds"/>
                    </mxGeometry>
                </mxCell>
                <mxCell id="585" value="" style="shape=tableRow;horizontal=0;startSize=0;swimlaneHead=0;swimlaneBody=0;top=0;left=0;bottom=0;right=0;collapsible=0;dropTarget=0;fillColor=none;points=[[0,0.5],[1,0.5]];portConstraint=eastwest;shadow=1;labelBackgroundColor=none;strokeColor=#050505;fontColor=#000000;" parent="580" vertex="1">
                    <mxGeometry y="87" width="503" height="57" as="geometry"/>
                </mxCell>
                <mxCell id="586" value="1" style="shape=partialRectangle;html=1;whiteSpace=wrap;connectable=0;top=0;left=0;bottom=0;right=0;overflow=hidden;shadow=1;labelBackgroundColor=none;fillColor=#eeeeee;strokeColor=#36393d;fontColor=#252323;" parent="585" vertex="1">
                    <mxGeometry width="80" height="57" as="geometry">
                        <mxRectangle width="80" height="57" as="alternateBounds"/>
                    </mxGeometry>
                </mxCell>
                <mxCell id="924" value="Dr. Rato" style="shape=partialRectangle;html=1;whiteSpace=wrap;connectable=0;top=0;left=0;bottom=0;right=0;overflow=hidden;shadow=1;labelBackgroundColor=none;fillColor=#eeeeee;strokeColor=#36393d;fontColor=#252323;" parent="585" vertex="1">
                    <mxGeometry x="80" width="141" height="57" as="geometry">
                        <mxRectangle width="141" height="57" as="alternateBounds"/>
                    </mxGeometry>
                </mxCell>
                <mxCell id="929" value="1321165465" style="shape=partialRectangle;html=1;whiteSpace=wrap;connectable=0;top=0;left=0;bottom=0;right=0;overflow=hidden;shadow=1;labelBackgroundColor=none;fillColor=#eeeeee;strokeColor=#36393d;fontColor=#252323;" parent="585" vertex="1">
                    <mxGeometry x="221" width="141" height="57" as="geometry">
                        <mxRectangle width="141" height="57" as="alternateBounds"/>
                    </mxGeometry>
                </mxCell>
                <mxCell id="952" value="6" style="shape=partialRectangle;html=1;whiteSpace=wrap;connectable=0;top=0;left=0;bottom=0;right=0;overflow=hidden;shadow=1;labelBackgroundColor=none;fillColor=#eeeeee;strokeColor=#36393d;fontColor=#252323;" parent="585" vertex="1">
                    <mxGeometry x="362" width="141" height="57" as="geometry">
                        <mxRectangle width="141" height="57" as="alternateBounds"/>
                    </mxGeometry>
                </mxCell>
                <mxCell id="589" value="" style="shape=tableRow;horizontal=0;startSize=0;swimlaneHead=0;swimlaneBody=0;top=0;left=0;bottom=0;right=0;collapsible=0;dropTarget=0;fillColor=none;points=[[0,0.5],[1,0.5]];portConstraint=eastwest;shadow=1;labelBackgroundColor=none;strokeColor=#050505;fontColor=#000000;" parent="580" vertex="1">
                    <mxGeometry y="144" width="503" height="56" as="geometry"/>
                </mxCell>
                <mxCell id="590" value="2" style="shape=partialRectangle;html=1;whiteSpace=wrap;connectable=0;top=0;left=0;bottom=0;right=0;overflow=hidden;shadow=1;labelBackgroundColor=none;fillColor=#eeeeee;strokeColor=#36393d;fontColor=#252323;" parent="589" vertex="1">
                    <mxGeometry width="80" height="56" as="geometry">
                        <mxRectangle width="80" height="56" as="alternateBounds"/>
                    </mxGeometry>
                </mxCell>
                <mxCell id="925" value="Pets" style="shape=partialRectangle;html=1;whiteSpace=wrap;connectable=0;top=0;left=0;bottom=0;right=0;overflow=hidden;shadow=1;labelBackgroundColor=none;fillColor=#eeeeee;strokeColor=#36393d;fontColor=#252323;" parent="589" vertex="1">
                    <mxGeometry x="80" width="141" height="56" as="geometry">
                        <mxRectangle width="141" height="56" as="alternateBounds"/>
                    </mxGeometry>
                </mxCell>
                <mxCell id="930" value="3127553453" style="shape=partialRectangle;html=1;whiteSpace=wrap;connectable=0;top=0;left=0;bottom=0;right=0;overflow=hidden;shadow=1;labelBackgroundColor=none;fillColor=#eeeeee;strokeColor=#36393d;fontColor=#252323;" parent="589" vertex="1">
                    <mxGeometry x="221" width="141" height="56" as="geometry">
                        <mxRectangle width="141" height="56" as="alternateBounds"/>
                    </mxGeometry>
                </mxCell>
                <mxCell id="953" value="4" style="shape=partialRectangle;html=1;whiteSpace=wrap;connectable=0;top=0;left=0;bottom=0;right=0;overflow=hidden;shadow=1;labelBackgroundColor=none;fillColor=#eeeeee;strokeColor=#36393d;fontColor=#252323;" parent="589" vertex="1">
                    <mxGeometry x="362" width="141" height="56" as="geometry">
                        <mxRectangle width="141" height="56" as="alternateBounds"/>
                    </mxGeometry>
                </mxCell>
                <mxCell id="625" style="shape=tableRow;horizontal=0;startSize=0;swimlaneHead=0;swimlaneBody=0;top=0;left=0;bottom=0;right=0;collapsible=0;dropTarget=0;fillColor=none;points=[[0,0.5],[1,0.5]];portConstraint=eastwest;shadow=1;labelBackgroundColor=none;strokeColor=#050505;fontColor=#000000;" parent="580" vertex="1">
                    <mxGeometry y="200" width="503" height="56" as="geometry"/>
                </mxCell>
                <mxCell id="626" value="3" style="shape=partialRectangle;html=1;whiteSpace=wrap;connectable=0;top=0;left=0;bottom=0;right=0;overflow=hidden;shadow=1;labelBackgroundColor=none;fillColor=#eeeeee;strokeColor=#36393d;fontColor=#252323;" parent="625" vertex="1">
                    <mxGeometry width="80" height="56" as="geometry">
                        <mxRectangle width="80" height="56" as="alternateBounds"/>
                    </mxGeometry>
                </mxCell>
                <mxCell id="927" value="Love Pets" style="shape=partialRectangle;html=1;whiteSpace=wrap;connectable=0;top=0;left=0;bottom=0;right=0;overflow=hidden;shadow=1;labelBackgroundColor=none;fillColor=#eeeeee;strokeColor=#36393d;fontColor=#252323;" parent="625" vertex="1">
                    <mxGeometry x="80" width="141" height="56" as="geometry">
                        <mxRectangle width="141" height="56" as="alternateBounds"/>
                    </mxGeometry>
                </mxCell>
                <mxCell id="932" value="6546756785" style="shape=partialRectangle;html=1;whiteSpace=wrap;connectable=0;top=0;left=0;bottom=0;right=0;overflow=hidden;shadow=1;labelBackgroundColor=none;fillColor=#eeeeee;strokeColor=#36393d;fontColor=#252323;" parent="625" vertex="1">
                    <mxGeometry x="221" width="141" height="56" as="geometry">
                        <mxRectangle width="141" height="56" as="alternateBounds"/>
                    </mxGeometry>
                </mxCell>
                <mxCell id="954" value="3" style="shape=partialRectangle;html=1;whiteSpace=wrap;connectable=0;top=0;left=0;bottom=0;right=0;overflow=hidden;shadow=1;labelBackgroundColor=none;fillColor=#eeeeee;strokeColor=#36393d;fontColor=#252323;" parent="625" vertex="1">
                    <mxGeometry x="362" width="141" height="56" as="geometry">
                        <mxRectangle width="141" height="56" as="alternateBounds"/>
                    </mxGeometry>
                </mxCell>
                <mxCell id="593" value="Dono" style="shape=table;startSize=30;container=1;collapsible=0;childLayout=tableLayout;fontStyle=1;align=center;shadow=1;labelBackgroundColor=none;" parent="1" vertex="1">
                    <mxGeometry x="-565.5" y="1983" width="503" height="256" as="geometry"/>
                </mxCell>
                <mxCell id="594" value="" style="shape=tableRow;horizontal=0;startSize=0;swimlaneHead=0;swimlaneBody=0;top=0;left=0;bottom=0;right=0;collapsible=0;dropTarget=0;fillColor=none;points=[[0,0.5],[1,0.5]];portConstraint=eastwest;shadow=1;labelBackgroundColor=none;strokeColor=#050505;fontColor=#000000;" parent="593" vertex="1">
                    <mxGeometry y="30" width="503" height="57" as="geometry"/>
                </mxCell>
                <mxCell id="595" value="IdDOno" style="shape=partialRectangle;html=1;whiteSpace=wrap;connectable=0;top=0;left=0;bottom=0;right=0;overflow=hidden;shadow=1;labelBackgroundColor=none;" parent="594" vertex="1">
                    <mxGeometry width="80" height="57" as="geometry">
                        <mxRectangle width="80" height="57" as="alternateBounds"/>
                    </mxGeometry>
                </mxCell>
                <mxCell id="596" value="Nome" style="shape=partialRectangle;html=1;whiteSpace=wrap;connectable=0;top=0;left=0;bottom=0;right=0;overflow=hidden;shadow=1;labelBackgroundColor=none;" parent="594" vertex="1">
                    <mxGeometry x="80" width="141" height="57" as="geometry">
                        <mxRectangle width="141" height="57" as="alternateBounds"/>
                    </mxGeometry>
                </mxCell>
                <mxCell id="944" value="CPF" style="shape=partialRectangle;html=1;whiteSpace=wrap;connectable=0;top=0;left=0;bottom=0;right=0;overflow=hidden;shadow=1;labelBackgroundColor=none;" parent="594" vertex="1">
                    <mxGeometry x="221" width="141" height="57" as="geometry">
                        <mxRectangle width="141" height="57" as="alternateBounds"/>
                    </mxGeometry>
                </mxCell>
                <mxCell id="938" value="IdEndereco" style="shape=partialRectangle;html=1;whiteSpace=wrap;connectable=0;top=0;left=0;bottom=0;right=0;overflow=hidden;shadow=1;labelBackgroundColor=none;" parent="594" vertex="1">
                    <mxGeometry x="362" width="141" height="57" as="geometry">
                        <mxRectangle width="141" height="57" as="alternateBounds"/>
                    </mxGeometry>
                </mxCell>
                <mxCell id="597" value="" style="shape=tableRow;horizontal=0;startSize=0;swimlaneHead=0;swimlaneBody=0;top=0;left=0;bottom=0;right=0;collapsible=0;dropTarget=0;fillColor=none;points=[[0,0.5],[1,0.5]];portConstraint=eastwest;shadow=1;labelBackgroundColor=none;strokeColor=#050505;fontColor=#000000;" parent="593" vertex="1">
                    <mxGeometry y="87" width="503" height="57" as="geometry"/>
                </mxCell>
                <mxCell id="598" value="1" style="shape=partialRectangle;html=1;whiteSpace=wrap;connectable=0;top=0;left=0;bottom=0;right=0;overflow=hidden;shadow=1;labelBackgroundColor=none;fillColor=#eeeeee;strokeColor=#36393d;fontColor=#252323;" parent="597" vertex="1">
                    <mxGeometry width="80" height="57" as="geometry">
                        <mxRectangle width="80" height="57" as="alternateBounds"/>
                    </mxGeometry>
                </mxCell>
                <mxCell id="599" value="Allan" style="shape=partialRectangle;html=1;whiteSpace=wrap;connectable=0;top=0;left=0;bottom=0;right=0;overflow=hidden;shadow=1;labelBackgroundColor=none;fillColor=#eeeeee;strokeColor=#36393d;fontColor=#252323;" parent="597" vertex="1">
                    <mxGeometry x="80" width="141" height="57" as="geometry">
                        <mxRectangle width="141" height="57" as="alternateBounds"/>
                    </mxGeometry>
                </mxCell>
                <mxCell id="945" value="12345678911" style="shape=partialRectangle;html=1;whiteSpace=wrap;connectable=0;top=0;left=0;bottom=0;right=0;overflow=hidden;shadow=1;labelBackgroundColor=none;fillColor=#eeeeee;strokeColor=#36393d;fontColor=#252323;" parent="597" vertex="1">
                    <mxGeometry x="221" width="141" height="57" as="geometry">
                        <mxRectangle width="141" height="57" as="alternateBounds"/>
                    </mxGeometry>
                </mxCell>
                <mxCell id="939" value="1" style="shape=partialRectangle;html=1;whiteSpace=wrap;connectable=0;top=0;left=0;bottom=0;right=0;overflow=hidden;shadow=1;labelBackgroundColor=none;fillColor=#eeeeee;strokeColor=#36393d;fontColor=#252323;" parent="597" vertex="1">
                    <mxGeometry x="362" width="141" height="57" as="geometry">
                        <mxRectangle width="141" height="57" as="alternateBounds"/>
                    </mxGeometry>
                </mxCell>
                <mxCell id="600" value="" style="shape=tableRow;horizontal=0;startSize=0;swimlaneHead=0;swimlaneBody=0;top=0;left=0;bottom=0;right=0;collapsible=0;dropTarget=0;fillColor=none;points=[[0,0.5],[1,0.5]];portConstraint=eastwest;shadow=1;labelBackgroundColor=none;strokeColor=#050505;fontColor=#000000;" parent="593" vertex="1">
                    <mxGeometry y="144" width="503" height="56" as="geometry"/>
                </mxCell>
                <mxCell id="601" value="2" style="shape=partialRectangle;html=1;whiteSpace=wrap;connectable=0;top=0;left=0;bottom=0;right=0;overflow=hidden;shadow=1;labelBackgroundColor=none;fillColor=#eeeeee;strokeColor=#36393d;fontColor=#252323;" parent="600" vertex="1">
                    <mxGeometry width="80" height="56" as="geometry">
                        <mxRectangle width="80" height="56" as="alternateBounds"/>
                    </mxGeometry>
                </mxCell>
                <mxCell id="602" value="Gabriel" style="shape=partialRectangle;html=1;whiteSpace=wrap;connectable=0;top=0;left=0;bottom=0;right=0;overflow=hidden;shadow=1;labelBackgroundColor=none;fillColor=#eeeeee;strokeColor=#36393d;fontColor=#252323;" parent="600" vertex="1">
                    <mxGeometry x="80" width="141" height="56" as="geometry">
                        <mxRectangle width="141" height="56" as="alternateBounds"/>
                    </mxGeometry>
                </mxCell>
                <mxCell id="946" value="76547564743" style="shape=partialRectangle;html=1;whiteSpace=wrap;connectable=0;top=0;left=0;bottom=0;right=0;overflow=hidden;shadow=1;labelBackgroundColor=none;fillColor=#eeeeee;strokeColor=#36393d;fontColor=#252323;" parent="600" vertex="1">
                    <mxGeometry x="221" width="141" height="56" as="geometry">
                        <mxRectangle width="141" height="56" as="alternateBounds"/>
                    </mxGeometry>
                </mxCell>
                <mxCell id="940" value="2" style="shape=partialRectangle;html=1;whiteSpace=wrap;connectable=0;top=0;left=0;bottom=0;right=0;overflow=hidden;shadow=1;labelBackgroundColor=none;fillColor=#eeeeee;strokeColor=#36393d;fontColor=#252323;" parent="600" vertex="1">
                    <mxGeometry x="362" width="141" height="56" as="geometry">
                        <mxRectangle width="141" height="56" as="alternateBounds"/>
                    </mxGeometry>
                </mxCell>
                <mxCell id="634" value="" style="shape=tableRow;horizontal=0;startSize=0;swimlaneHead=0;swimlaneBody=0;top=0;left=0;bottom=0;right=0;collapsible=0;dropTarget=0;fillColor=none;points=[[0,0.5],[1,0.5]];portConstraint=eastwest;shadow=1;labelBackgroundColor=none;strokeColor=#050505;fontColor=#000000;" parent="593" vertex="1">
                    <mxGeometry y="200" width="503" height="56" as="geometry"/>
                </mxCell>
                <mxCell id="635" value="3" style="shape=partialRectangle;html=1;whiteSpace=wrap;connectable=0;top=0;left=0;bottom=0;right=0;overflow=hidden;shadow=1;labelBackgroundColor=none;fillColor=#eeeeee;strokeColor=#36393d;fontColor=#252323;" parent="634" vertex="1">
                    <mxGeometry width="80" height="56" as="geometry">
                        <mxRectangle width="80" height="56" as="alternateBounds"/>
                    </mxGeometry>
                </mxCell>
                <mxCell id="636" value="Joao" style="shape=partialRectangle;html=1;whiteSpace=wrap;connectable=0;top=0;left=0;bottom=0;right=0;overflow=hidden;shadow=1;labelBackgroundColor=none;fillColor=#eeeeee;strokeColor=#36393d;fontColor=#252323;" parent="634" vertex="1">
                    <mxGeometry x="80" width="141" height="56" as="geometry">
                        <mxRectangle width="141" height="56" as="alternateBounds"/>
                    </mxGeometry>
                </mxCell>
                <mxCell id="947" value="54678678464" style="shape=partialRectangle;html=1;whiteSpace=wrap;connectable=0;top=0;left=0;bottom=0;right=0;overflow=hidden;shadow=1;labelBackgroundColor=none;fillColor=#eeeeee;strokeColor=#36393d;fontColor=#252323;" parent="634" vertex="1">
                    <mxGeometry x="221" width="141" height="56" as="geometry">
                        <mxRectangle width="141" height="56" as="alternateBounds"/>
                    </mxGeometry>
                </mxCell>
                <mxCell id="941" value="1" style="shape=partialRectangle;html=1;whiteSpace=wrap;connectable=0;top=0;left=0;bottom=0;right=0;overflow=hidden;shadow=1;labelBackgroundColor=none;fillColor=#eeeeee;strokeColor=#36393d;fontColor=#252323;" parent="634" vertex="1">
                    <mxGeometry x="362" width="141" height="56" as="geometry">
                        <mxRectangle width="141" height="56" as="alternateBounds"/>
                    </mxGeometry>
                </mxCell>
                <mxCell id="612" value="Veterinario" style="shape=table;startSize=30;container=1;collapsible=0;childLayout=tableLayout;fontStyle=1;align=center;shadow=1;labelBackgroundColor=none;" parent="1" vertex="1">
                    <mxGeometry x="585.75" y="1633" width="503" height="312" as="geometry"/>
                </mxCell>
                <mxCell id="613" value="" style="shape=tableRow;horizontal=0;startSize=0;swimlaneHead=0;swimlaneBody=0;top=0;left=0;bottom=0;right=0;collapsible=0;dropTarget=0;fillColor=none;points=[[0,0.5],[1,0.5]];portConstraint=eastwest;shadow=1;labelBackgroundColor=none;strokeColor=#050505;fontColor=#000000;" parent="612" vertex="1">
                    <mxGeometry y="30" width="503" height="57" as="geometry"/>
                </mxCell>
                <mxCell id="614" value="IdVeterinario" style="shape=partialRectangle;html=1;whiteSpace=wrap;connectable=0;top=0;left=0;bottom=0;right=0;overflow=hidden;shadow=1;labelBackgroundColor=none;" parent="613" vertex="1">
                    <mxGeometry width="80" height="57" as="geometry">
                        <mxRectangle width="80" height="57" as="alternateBounds"/>
                    </mxGeometry>
                </mxCell>
                <mxCell id="615" value="Nome" style="shape=partialRectangle;html=1;whiteSpace=wrap;connectable=0;top=0;left=0;bottom=0;right=0;overflow=hidden;shadow=1;labelBackgroundColor=none;" parent="613" vertex="1">
                    <mxGeometry x="80" width="141" height="57" as="geometry">
                        <mxRectangle width="141" height="57" as="alternateBounds"/>
                    </mxGeometry>
                </mxCell>
                <mxCell id="622" value="CRMV" style="shape=partialRectangle;html=1;whiteSpace=wrap;connectable=0;top=0;left=0;bottom=0;right=0;overflow=hidden;shadow=1;labelBackgroundColor=none;" parent="613" vertex="1">
                    <mxGeometry x="221" width="141" height="57" as="geometry">
                        <mxRectangle width="141" height="57" as="alternateBounds"/>
                    </mxGeometry>
                </mxCell>
                <mxCell id="961" value="IdClinica" style="shape=partialRectangle;html=1;whiteSpace=wrap;connectable=0;top=0;left=0;bottom=0;right=0;overflow=hidden;shadow=1;labelBackgroundColor=none;" parent="613" vertex="1">
                    <mxGeometry x="362" width="141" height="57" as="geometry">
                        <mxRectangle width="141" height="57" as="alternateBounds"/>
                    </mxGeometry>
                </mxCell>
                <mxCell id="616" value="" style="shape=tableRow;horizontal=0;startSize=0;swimlaneHead=0;swimlaneBody=0;top=0;left=0;bottom=0;right=0;collapsible=0;dropTarget=0;fillColor=none;points=[[0,0.5],[1,0.5]];portConstraint=eastwest;shadow=1;labelBackgroundColor=none;strokeColor=#050505;fontColor=#000000;" parent="612" vertex="1">
                    <mxGeometry y="87" width="503" height="57" as="geometry"/>
                </mxCell>
                <mxCell id="617" value="1" style="shape=partialRectangle;html=1;whiteSpace=wrap;connectable=0;top=0;left=0;bottom=0;right=0;overflow=hidden;shadow=1;labelBackgroundColor=none;fillColor=#eeeeee;strokeColor=#36393d;fontColor=#252323;" parent="616" vertex="1">
                    <mxGeometry width="80" height="57" as="geometry">
                        <mxRectangle width="80" height="57" as="alternateBounds"/>
                    </mxGeometry>
                </mxCell>
                <mxCell id="618" value="Jessia" style="shape=partialRectangle;html=1;whiteSpace=wrap;connectable=0;top=0;left=0;bottom=0;right=0;overflow=hidden;shadow=1;labelBackgroundColor=none;fillColor=#eeeeee;strokeColor=#36393d;fontColor=#252323;" parent="616" vertex="1">
                    <mxGeometry x="80" width="141" height="57" as="geometry">
                        <mxRectangle width="141" height="57" as="alternateBounds"/>
                    </mxGeometry>
                </mxCell>
                <mxCell id="623" value="9645643" style="shape=partialRectangle;html=1;whiteSpace=wrap;connectable=0;top=0;left=0;bottom=0;right=0;overflow=hidden;shadow=1;labelBackgroundColor=none;fillColor=#eeeeee;strokeColor=#36393d;fontColor=#252323;" parent="616" vertex="1">
                    <mxGeometry x="221" width="141" height="57" as="geometry">
                        <mxRectangle width="141" height="57" as="alternateBounds"/>
                    </mxGeometry>
                </mxCell>
                <mxCell id="962" value="3" style="shape=partialRectangle;html=1;whiteSpace=wrap;connectable=0;top=0;left=0;bottom=0;right=0;overflow=hidden;shadow=1;labelBackgroundColor=none;fillColor=#eeeeee;strokeColor=#36393d;fontColor=#252323;" parent="616" vertex="1">
                    <mxGeometry x="362" width="141" height="57" as="geometry">
                        <mxRectangle width="141" height="57" as="alternateBounds"/>
                    </mxGeometry>
                </mxCell>
                <mxCell id="619" value="" style="shape=tableRow;horizontal=0;startSize=0;swimlaneHead=0;swimlaneBody=0;top=0;left=0;bottom=0;right=0;collapsible=0;dropTarget=0;fillColor=none;points=[[0,0.5],[1,0.5]];portConstraint=eastwest;shadow=1;labelBackgroundColor=none;strokeColor=#050505;fontColor=#000000;" parent="612" vertex="1">
                    <mxGeometry y="144" width="503" height="56" as="geometry"/>
                </mxCell>
                <mxCell id="620" value="2" style="shape=partialRectangle;html=1;whiteSpace=wrap;connectable=0;top=0;left=0;bottom=0;right=0;overflow=hidden;shadow=1;labelBackgroundColor=none;fillColor=#eeeeee;strokeColor=#36393d;fontColor=#252323;" parent="619" vertex="1">
                    <mxGeometry width="80" height="56" as="geometry">
                        <mxRectangle width="80" height="56" as="alternateBounds"/>
                    </mxGeometry>
                </mxCell>
                <mxCell id="621" value="Bruna" style="shape=partialRectangle;html=1;whiteSpace=wrap;connectable=0;top=0;left=0;bottom=0;right=0;overflow=hidden;shadow=1;labelBackgroundColor=none;fillColor=#eeeeee;strokeColor=#36393d;fontColor=#252323;" parent="619" vertex="1">
                    <mxGeometry x="80" width="141" height="56" as="geometry">
                        <mxRectangle width="141" height="56" as="alternateBounds"/>
                    </mxGeometry>
                </mxCell>
                <mxCell id="624" value="49845496" style="shape=partialRectangle;html=1;whiteSpace=wrap;connectable=0;top=0;left=0;bottom=0;right=0;overflow=hidden;shadow=1;labelBackgroundColor=none;fillColor=#eeeeee;strokeColor=#36393d;fontColor=#252323;" parent="619" vertex="1">
                    <mxGeometry x="221" width="141" height="56" as="geometry">
                        <mxRectangle width="141" height="56" as="alternateBounds"/>
                    </mxGeometry>
                </mxCell>
                <mxCell id="963" value="2" style="shape=partialRectangle;html=1;whiteSpace=wrap;connectable=0;top=0;left=0;bottom=0;right=0;overflow=hidden;shadow=1;labelBackgroundColor=none;fillColor=#eeeeee;strokeColor=#36393d;fontColor=#252323;" parent="619" vertex="1">
                    <mxGeometry x="362" width="141" height="56" as="geometry">
                        <mxRectangle width="141" height="56" as="alternateBounds"/>
                    </mxGeometry>
                </mxCell>
                <mxCell id="1074" style="shape=tableRow;horizontal=0;startSize=0;swimlaneHead=0;swimlaneBody=0;top=0;left=0;bottom=0;right=0;collapsible=0;dropTarget=0;fillColor=none;points=[[0,0.5],[1,0.5]];portConstraint=eastwest;shadow=1;labelBackgroundColor=none;strokeColor=#050505;fontColor=#000000;" parent="612" vertex="1">
                    <mxGeometry y="200" width="503" height="56" as="geometry"/>
                </mxCell>
                <mxCell id="1075" value="3" style="shape=partialRectangle;html=1;whiteSpace=wrap;connectable=0;top=0;left=0;bottom=0;right=0;overflow=hidden;shadow=1;labelBackgroundColor=none;fillColor=#eeeeee;strokeColor=#36393d;fontColor=#252323;" parent="1074" vertex="1">
                    <mxGeometry width="80" height="56" as="geometry">
                        <mxRectangle width="80" height="56" as="alternateBounds"/>
                    </mxGeometry>
                </mxCell>
                <mxCell id="1076" value="Bernardo" style="shape=partialRectangle;html=1;whiteSpace=wrap;connectable=0;top=0;left=0;bottom=0;right=0;overflow=hidden;shadow=1;labelBackgroundColor=none;fillColor=#eeeeee;strokeColor=#36393d;fontColor=#252323;" parent="1074" vertex="1">
                    <mxGeometry x="80" width="141" height="56" as="geometry">
                        <mxRectangle width="141" height="56" as="alternateBounds"/>
                    </mxGeometry>
                </mxCell>
                <mxCell id="1077" value="543648657" style="shape=partialRectangle;html=1;whiteSpace=wrap;connectable=0;top=0;left=0;bottom=0;right=0;overflow=hidden;shadow=1;labelBackgroundColor=none;fillColor=#eeeeee;strokeColor=#36393d;fontColor=#252323;" parent="1074" vertex="1">
                    <mxGeometry x="221" width="141" height="56" as="geometry">
                        <mxRectangle width="141" height="56" as="alternateBounds"/>
                    </mxGeometry>
                </mxCell>
                <mxCell id="1078" value="1" style="shape=partialRectangle;html=1;whiteSpace=wrap;connectable=0;top=0;left=0;bottom=0;right=0;overflow=hidden;shadow=1;labelBackgroundColor=none;fillColor=#eeeeee;strokeColor=#36393d;fontColor=#252323;" parent="1074" vertex="1">
                    <mxGeometry x="362" width="141" height="56" as="geometry">
                        <mxRectangle width="141" height="56" as="alternateBounds"/>
                    </mxGeometry>
                </mxCell>
                <mxCell id="1079" style="shape=tableRow;horizontal=0;startSize=0;swimlaneHead=0;swimlaneBody=0;top=0;left=0;bottom=0;right=0;collapsible=0;dropTarget=0;fillColor=none;points=[[0,0.5],[1,0.5]];portConstraint=eastwest;shadow=1;labelBackgroundColor=none;strokeColor=#050505;fontColor=#000000;" parent="612" vertex="1">
                    <mxGeometry y="256" width="503" height="56" as="geometry"/>
                </mxCell>
                <mxCell id="1080" value="4" style="shape=partialRectangle;html=1;whiteSpace=wrap;connectable=0;top=0;left=0;bottom=0;right=0;overflow=hidden;shadow=1;labelBackgroundColor=none;fillColor=#eeeeee;strokeColor=#36393d;fontColor=#252323;" parent="1079" vertex="1">
                    <mxGeometry width="80" height="56" as="geometry">
                        <mxRectangle width="80" height="56" as="alternateBounds"/>
                    </mxGeometry>
                </mxCell>
                <mxCell id="1081" value="Josoe" style="shape=partialRectangle;html=1;whiteSpace=wrap;connectable=0;top=0;left=0;bottom=0;right=0;overflow=hidden;shadow=1;labelBackgroundColor=none;fillColor=#eeeeee;strokeColor=#36393d;fontColor=#252323;" parent="1079" vertex="1">
                    <mxGeometry x="80" width="141" height="56" as="geometry">
                        <mxRectangle width="141" height="56" as="alternateBounds"/>
                    </mxGeometry>
                </mxCell>
                <mxCell id="1082" value="56786575" style="shape=partialRectangle;html=1;whiteSpace=wrap;connectable=0;top=0;left=0;bottom=0;right=0;overflow=hidden;shadow=1;labelBackgroundColor=none;fillColor=#eeeeee;strokeColor=#36393d;fontColor=#252323;" parent="1079" vertex="1">
                    <mxGeometry x="221" width="141" height="56" as="geometry">
                        <mxRectangle width="141" height="56" as="alternateBounds"/>
                    </mxGeometry>
                </mxCell>
                <mxCell id="1083" value="3" style="shape=partialRectangle;html=1;whiteSpace=wrap;connectable=0;top=0;left=0;bottom=0;right=0;overflow=hidden;shadow=1;labelBackgroundColor=none;fillColor=#eeeeee;strokeColor=#36393d;fontColor=#252323;" parent="1079" vertex="1">
                    <mxGeometry x="362" width="141" height="56" as="geometry">
                        <mxRectangle width="141" height="56" as="alternateBounds"/>
                    </mxGeometry>
                </mxCell>
                <mxCell id="703" value="" style="edgeStyle=none;html=1;endArrow=none;endFill=0;" parent="1" source="649" target="702" edge="1">
                    <mxGeometry relative="1" as="geometry"/>
                </mxCell>
                <mxCell id="706" value="1" style="edgeLabel;html=1;align=center;verticalAlign=middle;resizable=0;points=[];" parent="703" vertex="1" connectable="0">
                    <mxGeometry x="-0.2439" y="-1" relative="1" as="geometry">
                        <mxPoint as="offset"/>
                    </mxGeometry>
                </mxCell>
                <mxCell id="649" value="Clinica" style="whiteSpace=wrap;html=1;align=center;" parent="1" vertex="1">
                    <mxGeometry x="-266.25" y="638" width="100" height="40" as="geometry"/>
                </mxCell>
                <mxCell id="659" style="edgeStyle=none;html=1;endArrow=none;endFill=0;" parent="1" source="650" target="653" edge="1">
                    <mxGeometry relative="1" as="geometry"/>
                </mxCell>
                <mxCell id="660" style="edgeStyle=none;html=1;endArrow=none;endFill=0;" parent="1" source="650" target="655" edge="1">
                    <mxGeometry relative="1" as="geometry"/>
                </mxCell>
                <mxCell id="661" style="edgeStyle=none;html=1;endArrow=none;endFill=0;" parent="1" source="650" target="656" edge="1">
                    <mxGeometry relative="1" as="geometry"/>
                </mxCell>
                <mxCell id="662" style="edgeStyle=none;html=1;endArrow=none;endFill=0;" parent="1" source="650" target="651" edge="1">
                    <mxGeometry relative="1" as="geometry"/>
                </mxCell>
                <mxCell id="663" style="edgeStyle=none;html=1;endArrow=none;endFill=0;" parent="1" source="650" target="654" edge="1">
                    <mxGeometry relative="1" as="geometry"/>
                </mxCell>
                <mxCell id="666" style="edgeStyle=none;html=1;endArrow=none;endFill=0;" parent="1" source="650" target="665" edge="1">
                    <mxGeometry relative="1" as="geometry"/>
                </mxCell>
                <mxCell id="650" value="Endereco" style="whiteSpace=wrap;html=1;align=center;" parent="1" vertex="1">
                    <mxGeometry x="-266.25" y="463" width="100" height="40" as="geometry"/>
                </mxCell>
                <mxCell id="651" value="CEP" style="ellipse;whiteSpace=wrap;html=1;align=center;" parent="1" vertex="1">
                    <mxGeometry x="-324.25" y="380" width="100" height="40" as="geometry"/>
                </mxCell>
                <mxCell id="657" style="edgeStyle=none;html=1;endArrow=none;endFill=0;" parent="1" source="652" target="650" edge="1">
                    <mxGeometry relative="1" as="geometry"/>
                </mxCell>
                <mxCell id="652" value="UF" style="ellipse;whiteSpace=wrap;html=1;align=center;" parent="1" vertex="1">
                    <mxGeometry x="-266.25" y="315" width="100" height="40" as="geometry"/>
                </mxCell>
                <mxCell id="653" value="Cidade" style="ellipse;whiteSpace=wrap;html=1;align=center;" parent="1" vertex="1">
                    <mxGeometry x="-210.25" y="380" width="100" height="40" as="geometry"/>
                </mxCell>
                <mxCell id="654" value="Bairro" style="ellipse;whiteSpace=wrap;html=1;align=center;" parent="1" vertex="1">
                    <mxGeometry x="-437.25" y="380" width="100" height="40" as="geometry"/>
                </mxCell>
                <mxCell id="655" value="Complemento" style="ellipse;whiteSpace=wrap;html=1;align=center;" parent="1" vertex="1">
                    <mxGeometry x="-95.25" y="380" width="100" height="40" as="geometry"/>
                </mxCell>
                <mxCell id="656" value="Numero" style="ellipse;whiteSpace=wrap;html=1;align=center;" parent="1" vertex="1">
                    <mxGeometry x="-97" y="498" width="100" height="40" as="geometry"/>
                </mxCell>
                <mxCell id="665" value="Logradouro" style="ellipse;whiteSpace=wrap;html=1;align=center;" parent="1" vertex="1">
                    <mxGeometry x="-437.25" y="463" width="100" height="40" as="geometry"/>
                </mxCell>
                <mxCell id="668" style="edgeStyle=none;html=1;endArrow=none;endFill=0;" parent="1" source="667" target="650" edge="1">
                    <mxGeometry relative="1" as="geometry"/>
                </mxCell>
                <mxCell id="670" value="1" style="edgeLabel;html=1;align=center;verticalAlign=middle;resizable=0;points=[];" parent="668" vertex="1" connectable="0">
                    <mxGeometry x="0.2146" relative="1" as="geometry">
                        <mxPoint as="offset"/>
                    </mxGeometry>
                </mxCell>
                <mxCell id="669" style="edgeStyle=none;html=1;endArrow=none;endFill=0;" parent="1" source="667" target="649" edge="1">
                    <mxGeometry relative="1" as="geometry"/>
                </mxCell>
                <mxCell id="671" value="1" style="edgeLabel;html=1;align=center;verticalAlign=middle;resizable=0;points=[];" parent="669" vertex="1" connectable="0">
                    <mxGeometry x="-0.1907" relative="1" as="geometry">
                        <mxPoint as="offset"/>
                    </mxGeometry>
                </mxCell>
                <mxCell id="667" value="Possui" style="shape=rhombus;perimeter=rhombusPerimeter;whiteSpace=wrap;html=1;align=center;" parent="1" vertex="1">
                    <mxGeometry x="-276.25" y="538" width="120" height="60" as="geometry"/>
                </mxCell>
                <mxCell id="672" value="Pet" style="whiteSpace=wrap;html=1;align=center;" parent="1" vertex="1">
                    <mxGeometry x="735.25" y="641" width="100" height="40" as="geometry"/>
                </mxCell>
                <mxCell id="681" style="edgeStyle=none;html=1;endArrow=none;endFill=0;" parent="1" target="676" edge="1">
                    <mxGeometry relative="1" as="geometry">
                        <mxPoint x="713.25" y="446.1399999999999" as="sourcePoint"/>
                    </mxGeometry>
                </mxCell>
                <mxCell id="683" value="1" style="edgeLabel;html=1;align=center;verticalAlign=middle;resizable=0;points=[];" parent="681" vertex="1" connectable="0">
                    <mxGeometry x="-0.088" relative="1" as="geometry">
                        <mxPoint as="offset"/>
                    </mxGeometry>
                </mxCell>
                <mxCell id="682" style="edgeStyle=none;html=1;endArrow=none;endFill=0;" parent="1" target="672" edge="1">
                    <mxGeometry relative="1" as="geometry">
                        <mxPoint x="723.5300953516089" y="500.9999523241954" as="sourcePoint"/>
                    </mxGeometry>
                </mxCell>
                <mxCell id="684" value="N" style="edgeLabel;html=1;align=center;verticalAlign=middle;resizable=0;points=[];" parent="682" vertex="1" connectable="0">
                    <mxGeometry x="0.1388" y="-1" relative="1" as="geometry">
                        <mxPoint as="offset"/>
                    </mxGeometry>
                </mxCell>
                <mxCell id="673" value="Contem" style="shape=rhombus;perimeter=rhombusPerimeter;whiteSpace=wrap;html=1;align=center;" parent="1" vertex="1">
                    <mxGeometry x="659.25" y="446.14" width="120" height="60" as="geometry"/>
                </mxCell>
                <mxCell id="679" style="edgeStyle=none;html=1;endArrow=none;endFill=0;" parent="1" source="674" target="672" edge="1">
                    <mxGeometry relative="1" as="geometry"/>
                </mxCell>
                <mxCell id="674" value="Nome" style="ellipse;whiteSpace=wrap;html=1;align=center;" parent="1" vertex="1">
                    <mxGeometry x="671.75" y="706" width="100" height="40" as="geometry"/>
                </mxCell>
                <mxCell id="680" style="edgeStyle=none;html=1;endArrow=none;endFill=0;" parent="1" source="675" target="672" edge="1">
                    <mxGeometry relative="1" as="geometry"/>
                </mxCell>
                <mxCell id="675" value="DataNascimento" style="ellipse;whiteSpace=wrap;html=1;align=center;" parent="1" vertex="1">
                    <mxGeometry x="792.75" y="706" width="100" height="40" as="geometry"/>
                </mxCell>
                <mxCell id="676" value="TipoPet" style="whiteSpace=wrap;html=1;align=center;" parent="1" vertex="1">
                    <mxGeometry x="663.25" y="341" width="100" height="40" as="geometry"/>
                </mxCell>
                <mxCell id="677" value="Raca" style="whiteSpace=wrap;html=1;align=center;" parent="1" vertex="1">
                    <mxGeometry x="810.25" y="341" width="100" height="40" as="geometry"/>
                </mxCell>
                <mxCell id="678" value="Dono" style="whiteSpace=wrap;html=1;align=center;" parent="1" vertex="1">
                    <mxGeometry x="1101.25" y="452" width="100" height="40" as="geometry"/>
                </mxCell>
                <mxCell id="685" style="edgeStyle=none;html=1;endArrow=none;endFill=0;entryX=0.5;entryY=1;entryDx=0;entryDy=0;" parent="1" source="689" target="678" edge="1">
                    <mxGeometry relative="1" as="geometry">
                        <mxPoint x="1050.25" y="546" as="targetPoint"/>
                    </mxGeometry>
                </mxCell>
                <mxCell id="686" value="N" style="edgeLabel;html=1;align=center;verticalAlign=middle;resizable=0;points=[];" parent="685" vertex="1" connectable="0">
                    <mxGeometry x="-0.088" relative="1" as="geometry">
                        <mxPoint as="offset"/>
                    </mxGeometry>
                </mxCell>
                <mxCell id="687" style="edgeStyle=none;html=1;endArrow=none;endFill=0;" parent="1" source="689" target="672" edge="1">
                    <mxGeometry relative="1" as="geometry">
                        <mxPoint x="919.68922268491" y="632" as="targetPoint"/>
                    </mxGeometry>
                </mxCell>
                <mxCell id="688" value="N" style="edgeLabel;html=1;align=center;verticalAlign=middle;resizable=0;points=[];" parent="687" vertex="1" connectable="0">
                    <mxGeometry x="0.1388" y="-1" relative="1" as="geometry">
                        <mxPoint as="offset"/>
                    </mxGeometry>
                </mxCell>
                <mxCell id="689" value="Tem" style="shape=rhombus;perimeter=rhombusPerimeter;whiteSpace=wrap;html=1;align=center;fillColor=#f8cecc;strokeColor=#b85450;" parent="1" vertex="1">
                    <mxGeometry x="930.25" y="527" width="120" height="60" as="geometry"/>
                </mxCell>
                <mxCell id="690" style="edgeStyle=none;html=1;endArrow=none;endFill=0;" parent="1" source="694" target="677" edge="1">
                    <mxGeometry relative="1" as="geometry">
                        <mxPoint x="851.3100461893764" y="441.10997690531167" as="sourcePoint"/>
                        <mxPoint x="851.25" y="360" as="targetPoint"/>
                    </mxGeometry>
                </mxCell>
                <mxCell id="691" value="1" style="edgeLabel;html=1;align=center;verticalAlign=middle;resizable=0;points=[];" parent="690" vertex="1" connectable="0">
                    <mxGeometry x="-0.088" relative="1" as="geometry">
                        <mxPoint as="offset"/>
                    </mxGeometry>
                </mxCell>
                <mxCell id="692" style="edgeStyle=none;html=1;endArrow=none;endFill=0;" parent="1" source="694" target="672" edge="1">
                    <mxGeometry relative="1" as="geometry">
                        <mxPoint x="1087.25" y="623" as="targetPoint"/>
                    </mxGeometry>
                </mxCell>
                <mxCell id="693" value="N" style="edgeLabel;html=1;align=center;verticalAlign=middle;resizable=0;points=[];" parent="692" vertex="1" connectable="0">
                    <mxGeometry x="0.1388" y="-1" relative="1" as="geometry">
                        <mxPoint as="offset"/>
                    </mxGeometry>
                </mxCell>
                <mxCell id="694" value="Contem" style="shape=rhombus;perimeter=rhombusPerimeter;whiteSpace=wrap;html=1;align=center;" parent="1" vertex="1">
                    <mxGeometry x="800.25" y="446.14" width="120" height="60" as="geometry"/>
                </mxCell>
                <mxCell id="698" style="edgeStyle=none;html=1;endArrow=none;endFill=0;" parent="1" source="695" target="697" edge="1">
                    <mxGeometry relative="1" as="geometry"/>
                </mxCell>
                <mxCell id="699" style="edgeStyle=none;html=1;endArrow=none;endFill=0;" parent="1" source="695" target="696" edge="1">
                    <mxGeometry relative="1" as="geometry"/>
                </mxCell>
                <mxCell id="695" value="Veterinario" style="whiteSpace=wrap;html=1;align=center;" parent="1" vertex="1">
                    <mxGeometry x="64.75" y="637" width="100" height="40" as="geometry"/>
                </mxCell>
                <mxCell id="696" value="Nome" style="ellipse;whiteSpace=wrap;html=1;align=center;" parent="1" vertex="1">
                    <mxGeometry x="9.75" y="707" width="100" height="40" as="geometry"/>
                </mxCell>
                <mxCell id="697" value="CRMV" style="ellipse;whiteSpace=wrap;html=1;align=center;" parent="1" vertex="1">
                    <mxGeometry x="119.75" y="708" width="100" height="40" as="geometry"/>
                </mxCell>
                <mxCell id="701" style="edgeStyle=none;html=1;endArrow=none;endFill=0;" parent="1" source="700" target="649" edge="1">
                    <mxGeometry relative="1" as="geometry"/>
                </mxCell>
                <mxCell id="700" value="RazaoSocial" style="ellipse;whiteSpace=wrap;html=1;align=center;" parent="1" vertex="1">
                    <mxGeometry x="-413.25" y="638" width="100" height="40" as="geometry"/>
                </mxCell>
                <mxCell id="704" value="" style="edgeStyle=none;html=1;endArrow=none;endFill=0;" parent="1" source="702" target="695" edge="1">
                    <mxGeometry relative="1" as="geometry"/>
                </mxCell>
                <mxCell id="705" value="N" style="edgeLabel;html=1;align=center;verticalAlign=middle;resizable=0;points=[];" parent="704" vertex="1" connectable="0">
                    <mxGeometry x="0.1089" relative="1" as="geometry">
                        <mxPoint as="offset"/>
                    </mxGeometry>
                </mxCell>
                <mxCell id="702" value="Contem" style="shape=rhombus;perimeter=rhombusPerimeter;whiteSpace=wrap;html=1;align=center;" parent="1" vertex="1">
                    <mxGeometry x="-108.25" y="627" width="120" height="60" as="geometry"/>
                </mxCell>
                <mxCell id="712" style="edgeStyle=none;html=1;endArrow=none;endFill=0;" parent="1" source="707" target="709" edge="1">
                    <mxGeometry relative="1" as="geometry"/>
                </mxCell>
                <mxCell id="718" value="N" style="edgeLabel;html=1;align=center;verticalAlign=middle;resizable=0;points=[];" parent="712" vertex="1" connectable="0">
                    <mxGeometry x="-0.0879" relative="1" as="geometry">
                        <mxPoint as="offset"/>
                    </mxGeometry>
                </mxCell>
                <mxCell id="707" value="Atendimento" style="whiteSpace=wrap;html=1;align=center;" parent="1" vertex="1">
                    <mxGeometry x="355.75" y="639" width="100" height="40" as="geometry"/>
                </mxCell>
                <mxCell id="710" style="edgeStyle=none;html=1;endArrow=none;endFill=0;" parent="1" source="708" target="695" edge="1">
                    <mxGeometry relative="1" as="geometry"/>
                </mxCell>
                <mxCell id="714" value="1" style="edgeLabel;html=1;align=center;verticalAlign=middle;resizable=0;points=[];" parent="710" vertex="1" connectable="0">
                    <mxGeometry x="0.6391" relative="1" as="geometry">
                        <mxPoint x="8" as="offset"/>
                    </mxGeometry>
                </mxCell>
                <mxCell id="711" style="edgeStyle=none;html=1;endArrow=none;endFill=0;" parent="1" source="708" target="707" edge="1">
                    <mxGeometry relative="1" as="geometry"/>
                </mxCell>
                <mxCell id="715" value="N" style="edgeLabel;html=1;align=center;verticalAlign=middle;resizable=0;points=[];" parent="711" vertex="1" connectable="0">
                    <mxGeometry x="0.0895" relative="1" as="geometry">
                        <mxPoint as="offset"/>
                    </mxGeometry>
                </mxCell>
                <mxCell id="708" value="Possui" style="shape=rhombus;perimeter=rhombusPerimeter;whiteSpace=wrap;html=1;align=center;" parent="1" vertex="1">
                    <mxGeometry x="200.75" y="633" width="120" height="60" as="geometry"/>
                </mxCell>
                <mxCell id="713" style="edgeStyle=none;html=1;endArrow=none;endFill=0;" parent="1" source="709" target="672" edge="1">
                    <mxGeometry relative="1" as="geometry">
                        <mxPoint x="699.0494652406414" y="636.8502673796797" as="sourcePoint"/>
                    </mxGeometry>
                </mxCell>
                <mxCell id="716" value="1" style="edgeLabel;html=1;align=center;verticalAlign=middle;resizable=0;points=[];" parent="713" vertex="1" connectable="0">
                    <mxGeometry x="0.1611" relative="1" as="geometry">
                        <mxPoint as="offset"/>
                    </mxGeometry>
                </mxCell>
                <mxCell id="709" value="Possui" style="shape=rhombus;perimeter=rhombusPerimeter;whiteSpace=wrap;html=1;align=center;" parent="1" vertex="1">
                    <mxGeometry x="503.75" y="632" width="120" height="60" as="geometry"/>
                </mxCell>
                <mxCell id="720" style="edgeStyle=none;html=1;endArrow=none;endFill=0;" parent="1" source="719" target="707" edge="1">
                    <mxGeometry relative="1" as="geometry"/>
                </mxCell>
                <mxCell id="719" value="Protocolo" style="ellipse;whiteSpace=wrap;html=1;align=center;" parent="1" vertex="1">
                    <mxGeometry x="243" y="537" width="100" height="40" as="geometry"/>
                </mxCell>
                <mxCell id="722" style="edgeStyle=none;html=1;endArrow=none;endFill=0;" parent="1" source="721" target="707" edge="1">
                    <mxGeometry relative="1" as="geometry"/>
                </mxCell>
                <mxCell id="721" value="DataAtendimento" style="ellipse;whiteSpace=wrap;html=1;align=center;" parent="1" vertex="1">
                    <mxGeometry x="355.5" y="538" width="100" height="40" as="geometry"/>
                </mxCell>
                <mxCell id="724" style="edgeStyle=none;html=1;endArrow=none;endFill=0;" parent="1" source="723" target="707" edge="1">
                    <mxGeometry relative="1" as="geometry"/>
                </mxCell>
                <mxCell id="723" value="&lt;span style=&quot;text-align: left;&quot;&gt;Historico Clinico&lt;/span&gt;" style="ellipse;whiteSpace=wrap;html=1;align=center;" parent="1" vertex="1">
                    <mxGeometry x="468.5" y="536" width="100" height="40" as="geometry"/>
                </mxCell>
                <mxCell id="728" style="edgeStyle=none;html=1;endArrow=none;endFill=0;" parent="1" source="727" target="676" edge="1">
                    <mxGeometry relative="1" as="geometry"/>
                </mxCell>
                <mxCell id="727" value="Tipo" style="ellipse;whiteSpace=wrap;html=1;align=center;" parent="1" vertex="1">
                    <mxGeometry x="663.25" y="246" width="100" height="40" as="geometry"/>
                </mxCell>
                <mxCell id="730" style="edgeStyle=none;html=1;endArrow=none;endFill=0;" parent="1" source="729" target="677" edge="1">
                    <mxGeometry relative="1" as="geometry"/>
                </mxCell>
                <mxCell id="729" value="Raca" style="ellipse;whiteSpace=wrap;html=1;align=center;" parent="1" vertex="1">
                    <mxGeometry x="810.25" y="243" width="100" height="40" as="geometry"/>
                </mxCell>
                <mxCell id="731" value="Endereco" style="shape=table;startSize=30;container=1;collapsible=1;childLayout=tableLayout;fixedRows=1;rowLines=0;fontStyle=1;align=center;resizeLast=1;" parent="1" vertex="1">
                    <mxGeometry x="-499" y="961" width="180" height="270" as="geometry"/>
                </mxCell>
                <mxCell id="732" value="" style="shape=tableRow;horizontal=0;startSize=0;swimlaneHead=0;swimlaneBody=0;fillColor=none;collapsible=0;dropTarget=0;points=[[0,0.5],[1,0.5]];portConstraint=eastwest;top=0;left=0;right=0;bottom=1;" parent="731" vertex="1">
                    <mxGeometry y="30" width="180" height="30" as="geometry"/>
                </mxCell>
                <mxCell id="733" value="PK" style="shape=partialRectangle;connectable=0;fillColor=none;top=0;left=0;bottom=0;right=0;fontStyle=1;overflow=hidden;" parent="732" vertex="1">
                    <mxGeometry width="60" height="30" as="geometry">
                        <mxRectangle width="60" height="30" as="alternateBounds"/>
                    </mxGeometry>
                </mxCell>
                <mxCell id="734" value="IdEndereco" style="shape=partialRectangle;connectable=0;fillColor=none;top=0;left=0;bottom=0;right=0;align=left;spacingLeft=6;fontStyle=5;overflow=hidden;" parent="732" vertex="1">
                    <mxGeometry x="60" width="120" height="30" as="geometry">
                        <mxRectangle width="120" height="30" as="alternateBounds"/>
                    </mxGeometry>
                </mxCell>
                <mxCell id="735" value="" style="shape=tableRow;horizontal=0;startSize=0;swimlaneHead=0;swimlaneBody=0;fillColor=none;collapsible=0;dropTarget=0;points=[[0,0.5],[1,0.5]];portConstraint=eastwest;top=0;left=0;right=0;bottom=0;" parent="731" vertex="1">
                    <mxGeometry y="60" width="180" height="30" as="geometry"/>
                </mxCell>
                <mxCell id="736" value="" style="shape=partialRectangle;connectable=0;fillColor=none;top=0;left=0;bottom=0;right=0;editable=1;overflow=hidden;" parent="735" vertex="1">
                    <mxGeometry width="60" height="30" as="geometry">
                        <mxRectangle width="60" height="30" as="alternateBounds"/>
                    </mxGeometry>
                </mxCell>
                <mxCell id="737" value="Bairro" style="shape=partialRectangle;connectable=0;fillColor=none;top=0;left=0;bottom=0;right=0;align=left;spacingLeft=6;overflow=hidden;" parent="735" vertex="1">
                    <mxGeometry x="60" width="120" height="30" as="geometry">
                        <mxRectangle width="120" height="30" as="alternateBounds"/>
                    </mxGeometry>
                </mxCell>
                <mxCell id="741" value="" style="shape=tableRow;horizontal=0;startSize=0;swimlaneHead=0;swimlaneBody=0;fillColor=none;collapsible=0;dropTarget=0;points=[[0,0.5],[1,0.5]];portConstraint=eastwest;top=0;left=0;right=0;bottom=0;" parent="731" vertex="1">
                    <mxGeometry y="90" width="180" height="30" as="geometry"/>
                </mxCell>
                <mxCell id="742" value="" style="shape=partialRectangle;connectable=0;fillColor=none;top=0;left=0;bottom=0;right=0;editable=1;overflow=hidden;" parent="741" vertex="1">
                    <mxGeometry width="60" height="30" as="geometry">
                        <mxRectangle width="60" height="30" as="alternateBounds"/>
                    </mxGeometry>
                </mxCell>
                <mxCell id="743" value="Cep" style="shape=partialRectangle;connectable=0;fillColor=none;top=0;left=0;bottom=0;right=0;align=left;spacingLeft=6;overflow=hidden;" parent="741" vertex="1">
                    <mxGeometry x="60" width="120" height="30" as="geometry">
                        <mxRectangle width="120" height="30" as="alternateBounds"/>
                    </mxGeometry>
                </mxCell>
                <mxCell id="744" value="" style="shape=tableRow;horizontal=0;startSize=0;swimlaneHead=0;swimlaneBody=0;fillColor=none;collapsible=0;dropTarget=0;points=[[0,0.5],[1,0.5]];portConstraint=eastwest;top=0;left=0;right=0;bottom=0;" parent="731" vertex="1">
                    <mxGeometry y="120" width="180" height="30" as="geometry"/>
                </mxCell>
                <mxCell id="745" value="" style="shape=partialRectangle;connectable=0;fillColor=none;top=0;left=0;bottom=0;right=0;editable=1;overflow=hidden;" parent="744" vertex="1">
                    <mxGeometry width="60" height="30" as="geometry">
                        <mxRectangle width="60" height="30" as="alternateBounds"/>
                    </mxGeometry>
                </mxCell>
                <mxCell id="746" value="Cidade" style="shape=partialRectangle;connectable=0;fillColor=none;top=0;left=0;bottom=0;right=0;align=left;spacingLeft=6;overflow=hidden;" parent="744" vertex="1">
                    <mxGeometry x="60" width="120" height="30" as="geometry">
                        <mxRectangle width="120" height="30" as="alternateBounds"/>
                    </mxGeometry>
                </mxCell>
                <mxCell id="747" value="" style="shape=tableRow;horizontal=0;startSize=0;swimlaneHead=0;swimlaneBody=0;fillColor=none;collapsible=0;dropTarget=0;points=[[0,0.5],[1,0.5]];portConstraint=eastwest;top=0;left=0;right=0;bottom=0;" parent="731" vertex="1">
                    <mxGeometry y="150" width="180" height="30" as="geometry"/>
                </mxCell>
                <mxCell id="748" value="" style="shape=partialRectangle;connectable=0;fillColor=none;top=0;left=0;bottom=0;right=0;editable=1;overflow=hidden;" parent="747" vertex="1">
                    <mxGeometry width="60" height="30" as="geometry">
                        <mxRectangle width="60" height="30" as="alternateBounds"/>
                    </mxGeometry>
                </mxCell>
                <mxCell id="749" value="Complemento" style="shape=partialRectangle;connectable=0;fillColor=none;top=0;left=0;bottom=0;right=0;align=left;spacingLeft=6;overflow=hidden;" parent="747" vertex="1">
                    <mxGeometry x="60" width="120" height="30" as="geometry">
                        <mxRectangle width="120" height="30" as="alternateBounds"/>
                    </mxGeometry>
                </mxCell>
                <mxCell id="750" value="" style="shape=tableRow;horizontal=0;startSize=0;swimlaneHead=0;swimlaneBody=0;fillColor=none;collapsible=0;dropTarget=0;points=[[0,0.5],[1,0.5]];portConstraint=eastwest;top=0;left=0;right=0;bottom=0;" parent="731" vertex="1">
                    <mxGeometry y="180" width="180" height="30" as="geometry"/>
                </mxCell>
                <mxCell id="751" value="" style="shape=partialRectangle;connectable=0;fillColor=none;top=0;left=0;bottom=0;right=0;editable=1;overflow=hidden;" parent="750" vertex="1">
                    <mxGeometry width="60" height="30" as="geometry">
                        <mxRectangle width="60" height="30" as="alternateBounds"/>
                    </mxGeometry>
                </mxCell>
                <mxCell id="752" value="Logradouro" style="shape=partialRectangle;connectable=0;fillColor=none;top=0;left=0;bottom=0;right=0;align=left;spacingLeft=6;overflow=hidden;" parent="750" vertex="1">
                    <mxGeometry x="60" width="120" height="30" as="geometry">
                        <mxRectangle width="120" height="30" as="alternateBounds"/>
                    </mxGeometry>
                </mxCell>
                <mxCell id="753" value="" style="shape=tableRow;horizontal=0;startSize=0;swimlaneHead=0;swimlaneBody=0;fillColor=none;collapsible=0;dropTarget=0;points=[[0,0.5],[1,0.5]];portConstraint=eastwest;top=0;left=0;right=0;bottom=0;" parent="731" vertex="1">
                    <mxGeometry y="210" width="180" height="30" as="geometry"/>
                </mxCell>
                <mxCell id="754" value="" style="shape=partialRectangle;connectable=0;fillColor=none;top=0;left=0;bottom=0;right=0;editable=1;overflow=hidden;" parent="753" vertex="1">
                    <mxGeometry width="60" height="30" as="geometry">
                        <mxRectangle width="60" height="30" as="alternateBounds"/>
                    </mxGeometry>
                </mxCell>
                <mxCell id="755" value="Numero" style="shape=partialRectangle;connectable=0;fillColor=none;top=0;left=0;bottom=0;right=0;align=left;spacingLeft=6;overflow=hidden;" parent="753" vertex="1">
                    <mxGeometry x="60" width="120" height="30" as="geometry">
                        <mxRectangle width="120" height="30" as="alternateBounds"/>
                    </mxGeometry>
                </mxCell>
                <mxCell id="756" value="" style="shape=tableRow;horizontal=0;startSize=0;swimlaneHead=0;swimlaneBody=0;fillColor=none;collapsible=0;dropTarget=0;points=[[0,0.5],[1,0.5]];portConstraint=eastwest;top=0;left=0;right=0;bottom=0;" parent="731" vertex="1">
                    <mxGeometry y="240" width="180" height="30" as="geometry"/>
                </mxCell>
                <mxCell id="757" value="" style="shape=partialRectangle;connectable=0;fillColor=none;top=0;left=0;bottom=0;right=0;editable=1;overflow=hidden;" parent="756" vertex="1">
                    <mxGeometry width="60" height="30" as="geometry">
                        <mxRectangle width="60" height="30" as="alternateBounds"/>
                    </mxGeometry>
                </mxCell>
                <mxCell id="758" value="Uf" style="shape=partialRectangle;connectable=0;fillColor=none;top=0;left=0;bottom=0;right=0;align=left;spacingLeft=6;overflow=hidden;" parent="756" vertex="1">
                    <mxGeometry x="60" width="120" height="30" as="geometry">
                        <mxRectangle width="120" height="30" as="alternateBounds"/>
                    </mxGeometry>
                </mxCell>
                <mxCell id="769" value="" style="edgeStyle=entityRelationEdgeStyle;fontSize=12;html=1;endArrow=ERmandOne;startArrow=ERmandOne;" parent="1" source="732" target="256" edge="1">
                    <mxGeometry width="100" height="100" relative="1" as="geometry">
                        <mxPoint x="-291" y="1303" as="sourcePoint"/>
                        <mxPoint x="-191" y="1203" as="targetPoint"/>
                    </mxGeometry>
                </mxCell>
                <mxCell id="770" value="Veterinario" style="shape=table;startSize=30;container=1;collapsible=1;childLayout=tableLayout;fixedRows=1;rowLines=0;fontStyle=1;align=center;resizeLast=1;" parent="1" vertex="1">
                    <mxGeometry x="34" y="960" width="180" height="150" as="geometry"/>
                </mxCell>
                <mxCell id="771" value="" style="shape=tableRow;horizontal=0;startSize=0;swimlaneHead=0;swimlaneBody=0;fillColor=none;collapsible=0;dropTarget=0;points=[[0,0.5],[1,0.5]];portConstraint=eastwest;top=0;left=0;right=0;bottom=0;" parent="770" vertex="1">
                    <mxGeometry y="30" width="180" height="30" as="geometry"/>
                </mxCell>
                <mxCell id="772" value="PK" style="shape=partialRectangle;connectable=0;fillColor=none;top=0;left=0;bottom=0;right=0;fontStyle=1;overflow=hidden;" parent="771" vertex="1">
                    <mxGeometry width="60" height="30" as="geometry">
                        <mxRectangle width="60" height="30" as="alternateBounds"/>
                    </mxGeometry>
                </mxCell>
                <mxCell id="773" value="IdVeterinario" style="shape=partialRectangle;connectable=0;fillColor=none;top=0;left=0;bottom=0;right=0;align=left;spacingLeft=6;fontStyle=5;overflow=hidden;" parent="771" vertex="1">
                    <mxGeometry x="60" width="120" height="30" as="geometry">
                        <mxRectangle width="120" height="30" as="alternateBounds"/>
                    </mxGeometry>
                </mxCell>
                <mxCell id="777" value="" style="shape=tableRow;horizontal=0;startSize=0;swimlaneHead=0;swimlaneBody=0;fillColor=none;collapsible=0;dropTarget=0;points=[[0,0.5],[1,0.5]];portConstraint=eastwest;top=0;left=0;right=0;bottom=1;" parent="770" vertex="1">
                    <mxGeometry y="60" width="180" height="30" as="geometry"/>
                </mxCell>
                <mxCell id="778" value="FK" style="shape=partialRectangle;connectable=0;fillColor=none;top=0;left=0;bottom=0;right=0;fontStyle=1;overflow=hidden;" parent="777" vertex="1">
                    <mxGeometry width="60" height="30" as="geometry">
                        <mxRectangle width="60" height="30" as="alternateBounds"/>
                    </mxGeometry>
                </mxCell>
                <mxCell id="779" value="IdClinica" style="shape=partialRectangle;connectable=0;fillColor=none;top=0;left=0;bottom=0;right=0;align=left;spacingLeft=6;fontStyle=1;overflow=hidden;" parent="777" vertex="1">
                    <mxGeometry x="60" width="120" height="30" as="geometry">
                        <mxRectangle width="120" height="30" as="alternateBounds"/>
                    </mxGeometry>
                </mxCell>
                <mxCell id="780" value="" style="shape=tableRow;horizontal=0;startSize=0;swimlaneHead=0;swimlaneBody=0;fillColor=none;collapsible=0;dropTarget=0;points=[[0,0.5],[1,0.5]];portConstraint=eastwest;top=0;left=0;right=0;bottom=0;" parent="770" vertex="1">
                    <mxGeometry y="90" width="180" height="30" as="geometry"/>
                </mxCell>
                <mxCell id="781" value="" style="shape=partialRectangle;connectable=0;fillColor=none;top=0;left=0;bottom=0;right=0;editable=1;overflow=hidden;" parent="780" vertex="1">
                    <mxGeometry width="60" height="30" as="geometry">
                        <mxRectangle width="60" height="30" as="alternateBounds"/>
                    </mxGeometry>
                </mxCell>
                <mxCell id="782" value="Nome" style="shape=partialRectangle;connectable=0;fillColor=none;top=0;left=0;bottom=0;right=0;align=left;spacingLeft=6;overflow=hidden;" parent="780" vertex="1">
                    <mxGeometry x="60" width="120" height="30" as="geometry">
                        <mxRectangle width="120" height="30" as="alternateBounds"/>
                    </mxGeometry>
                </mxCell>
                <mxCell id="783" value="" style="shape=tableRow;horizontal=0;startSize=0;swimlaneHead=0;swimlaneBody=0;fillColor=none;collapsible=0;dropTarget=0;points=[[0,0.5],[1,0.5]];portConstraint=eastwest;top=0;left=0;right=0;bottom=0;" parent="770" vertex="1">
                    <mxGeometry y="120" width="180" height="30" as="geometry"/>
                </mxCell>
                <mxCell id="784" value="" style="shape=partialRectangle;connectable=0;fillColor=none;top=0;left=0;bottom=0;right=0;editable=1;overflow=hidden;" parent="783" vertex="1">
                    <mxGeometry width="60" height="30" as="geometry">
                        <mxRectangle width="60" height="30" as="alternateBounds"/>
                    </mxGeometry>
                </mxCell>
                <mxCell id="785" value="CRMV" style="shape=partialRectangle;connectable=0;fillColor=none;top=0;left=0;bottom=0;right=0;align=left;spacingLeft=6;overflow=hidden;" parent="783" vertex="1">
                    <mxGeometry x="60" width="120" height="30" as="geometry">
                        <mxRectangle width="120" height="30" as="alternateBounds"/>
                    </mxGeometry>
                </mxCell>
                <mxCell id="789" value="" style="edgeStyle=entityRelationEdgeStyle;fontSize=12;html=1;endArrow=ERoneToMany;" parent="1" source="253" target="777" edge="1">
                    <mxGeometry width="100" height="100" relative="1" as="geometry">
                        <mxPoint x="-107" y="1251" as="sourcePoint"/>
                        <mxPoint x="-7" y="1151" as="targetPoint"/>
                    </mxGeometry>
                </mxCell>
                <mxCell id="790" value="" style="edgeStyle=entityRelationEdgeStyle;fontSize=12;html=1;endArrow=ERoneToMany;" parent="1" source="771" target="528" edge="1">
                    <mxGeometry width="100" height="100" relative="1" as="geometry">
                        <mxPoint x="-2" y="1302" as="sourcePoint"/>
                        <mxPoint x="98" y="1202" as="targetPoint"/>
                    </mxGeometry>
                </mxCell>
                <mxCell id="791" value="Pet" style="shape=table;startSize=30;container=1;collapsible=1;childLayout=tableLayout;fixedRows=1;rowLines=0;fontStyle=1;align=center;resizeLast=1;" parent="1" vertex="1">
                    <mxGeometry x="593" y="964" width="180" height="180" as="geometry"/>
                </mxCell>
                <mxCell id="792" value="" style="shape=tableRow;horizontal=0;startSize=0;swimlaneHead=0;swimlaneBody=0;fillColor=none;collapsible=0;dropTarget=0;points=[[0,0.5],[1,0.5]];portConstraint=eastwest;top=0;left=0;right=0;bottom=0;" parent="791" vertex="1">
                    <mxGeometry y="30" width="180" height="30" as="geometry"/>
                </mxCell>
                <mxCell id="793" value="PK" style="shape=partialRectangle;connectable=0;fillColor=none;top=0;left=0;bottom=0;right=0;fontStyle=1;overflow=hidden;" parent="792" vertex="1">
                    <mxGeometry width="60" height="30" as="geometry">
                        <mxRectangle width="60" height="30" as="alternateBounds"/>
                    </mxGeometry>
                </mxCell>
                <mxCell id="794" value="IdPet" style="shape=partialRectangle;connectable=0;fillColor=none;top=0;left=0;bottom=0;right=0;align=left;spacingLeft=6;fontStyle=5;overflow=hidden;" parent="792" vertex="1">
                    <mxGeometry x="60" width="120" height="30" as="geometry">
                        <mxRectangle width="120" height="30" as="alternateBounds"/>
                    </mxGeometry>
                </mxCell>
                <mxCell id="795" value="" style="shape=tableRow;horizontal=0;startSize=0;swimlaneHead=0;swimlaneBody=0;fillColor=none;collapsible=0;dropTarget=0;points=[[0,0.5],[1,0.5]];portConstraint=eastwest;top=0;left=0;right=0;bottom=0;" parent="791" vertex="1">
                    <mxGeometry y="60" width="180" height="30" as="geometry"/>
                </mxCell>
                <mxCell id="796" value="FK" style="shape=partialRectangle;connectable=0;fillColor=none;top=0;left=0;bottom=0;right=0;fontStyle=1;overflow=hidden;" parent="795" vertex="1">
                    <mxGeometry width="60" height="30" as="geometry">
                        <mxRectangle width="60" height="30" as="alternateBounds"/>
                    </mxGeometry>
                </mxCell>
                <mxCell id="797" value="IdTipoPet" style="shape=partialRectangle;connectable=0;fillColor=none;top=0;left=0;bottom=0;right=0;align=left;spacingLeft=6;fontStyle=1;overflow=hidden;" parent="795" vertex="1">
                    <mxGeometry x="60" width="120" height="30" as="geometry">
                        <mxRectangle width="120" height="30" as="alternateBounds"/>
                    </mxGeometry>
                </mxCell>
                <mxCell id="798" value="" style="shape=tableRow;horizontal=0;startSize=0;swimlaneHead=0;swimlaneBody=0;fillColor=none;collapsible=0;dropTarget=0;points=[[0,0.5],[1,0.5]];portConstraint=eastwest;top=0;left=0;right=0;bottom=1;" parent="791" vertex="1">
                    <mxGeometry y="90" width="180" height="30" as="geometry"/>
                </mxCell>
                <mxCell id="799" value="FK" style="shape=partialRectangle;connectable=0;fillColor=none;top=0;left=0;bottom=0;right=0;fontStyle=1;overflow=hidden;" parent="798" vertex="1">
                    <mxGeometry width="60" height="30" as="geometry">
                        <mxRectangle width="60" height="30" as="alternateBounds"/>
                    </mxGeometry>
                </mxCell>
                <mxCell id="800" value="IdRaca" style="shape=partialRectangle;connectable=0;fillColor=none;top=0;left=0;bottom=0;right=0;align=left;spacingLeft=6;fontStyle=1;overflow=hidden;" parent="798" vertex="1">
                    <mxGeometry x="60" width="120" height="30" as="geometry">
                        <mxRectangle width="120" height="30" as="alternateBounds"/>
                    </mxGeometry>
                </mxCell>
                <mxCell id="801" value="" style="shape=tableRow;horizontal=0;startSize=0;swimlaneHead=0;swimlaneBody=0;fillColor=none;collapsible=0;dropTarget=0;points=[[0,0.5],[1,0.5]];portConstraint=eastwest;top=0;left=0;right=0;bottom=0;" parent="791" vertex="1">
                    <mxGeometry y="120" width="180" height="30" as="geometry"/>
                </mxCell>
                <mxCell id="802" value="" style="shape=partialRectangle;connectable=0;fillColor=none;top=0;left=0;bottom=0;right=0;editable=1;overflow=hidden;" parent="801" vertex="1">
                    <mxGeometry width="60" height="30" as="geometry">
                        <mxRectangle width="60" height="30" as="alternateBounds"/>
                    </mxGeometry>
                </mxCell>
                <mxCell id="803" value="Nome" style="shape=partialRectangle;connectable=0;fillColor=none;top=0;left=0;bottom=0;right=0;align=left;spacingLeft=6;overflow=hidden;" parent="801" vertex="1">
                    <mxGeometry x="60" width="120" height="30" as="geometry">
                        <mxRectangle width="120" height="30" as="alternateBounds"/>
                    </mxGeometry>
                </mxCell>
                <mxCell id="804" value="" style="shape=tableRow;horizontal=0;startSize=0;swimlaneHead=0;swimlaneBody=0;fillColor=none;collapsible=0;dropTarget=0;points=[[0,0.5],[1,0.5]];portConstraint=eastwest;top=0;left=0;right=0;bottom=0;" parent="791" vertex="1">
                    <mxGeometry y="150" width="180" height="30" as="geometry"/>
                </mxCell>
                <mxCell id="805" value="" style="shape=partialRectangle;connectable=0;fillColor=none;top=0;left=0;bottom=0;right=0;editable=1;overflow=hidden;" parent="804" vertex="1">
                    <mxGeometry width="60" height="30" as="geometry">
                        <mxRectangle width="60" height="30" as="alternateBounds"/>
                    </mxGeometry>
                </mxCell>
                <mxCell id="806" value="DataNascimento" style="shape=partialRectangle;connectable=0;fillColor=none;top=0;left=0;bottom=0;right=0;align=left;spacingLeft=6;overflow=hidden;" parent="804" vertex="1">
                    <mxGeometry x="60" width="120" height="30" as="geometry">
                        <mxRectangle width="120" height="30" as="alternateBounds"/>
                    </mxGeometry>
                </mxCell>
                <mxCell id="813" value="" style="edgeStyle=entityRelationEdgeStyle;fontSize=12;html=1;endArrow=ERoneToMany;" parent="1" source="792" target="522" edge="1">
                    <mxGeometry width="100" height="100" relative="1" as="geometry">
                        <mxPoint x="207" y="1339" as="sourcePoint"/>
                        <mxPoint x="307" y="1239" as="targetPoint"/>
                    </mxGeometry>
                </mxCell>
                <mxCell id="853" value="Cliente" style="shape=table;startSize=30;container=1;collapsible=1;childLayout=tableLayout;fixedRows=1;rowLines=0;fontStyle=1;align=center;resizeLast=1;" parent="1" vertex="1">
                    <mxGeometry x="-237" y="1268" width="180" height="150" as="geometry"/>
                </mxCell>
                <mxCell id="854" value="" style="shape=tableRow;horizontal=0;startSize=0;swimlaneHead=0;swimlaneBody=0;fillColor=none;collapsible=0;dropTarget=0;points=[[0,0.5],[1,0.5]];portConstraint=eastwest;top=0;left=0;right=0;bottom=0;" parent="853" vertex="1">
                    <mxGeometry y="30" width="180" height="30" as="geometry"/>
                </mxCell>
                <mxCell id="855" value="PK" style="shape=partialRectangle;connectable=0;fillColor=none;top=0;left=0;bottom=0;right=0;fontStyle=1;overflow=hidden;" parent="854" vertex="1">
                    <mxGeometry width="60" height="30" as="geometry">
                        <mxRectangle width="60" height="30" as="alternateBounds"/>
                    </mxGeometry>
                </mxCell>
                <mxCell id="856" value="IdCliente" style="shape=partialRectangle;connectable=0;fillColor=none;top=0;left=0;bottom=0;right=0;align=left;spacingLeft=6;fontStyle=5;overflow=hidden;" parent="854" vertex="1">
                    <mxGeometry x="60" width="120" height="30" as="geometry">
                        <mxRectangle width="120" height="30" as="alternateBounds"/>
                    </mxGeometry>
                </mxCell>
                <mxCell id="863" value="" style="shape=tableRow;horizontal=0;startSize=0;swimlaneHead=0;swimlaneBody=0;fillColor=none;collapsible=0;dropTarget=0;points=[[0,0.5],[1,0.5]];portConstraint=eastwest;top=0;left=0;right=0;bottom=1;" parent="853" vertex="1">
                    <mxGeometry y="60" width="180" height="30" as="geometry"/>
                </mxCell>
                <mxCell id="864" value="FK" style="shape=partialRectangle;connectable=0;fillColor=none;top=0;left=0;bottom=0;right=0;fontStyle=1;overflow=hidden;" parent="863" vertex="1">
                    <mxGeometry width="60" height="30" as="geometry">
                        <mxRectangle width="60" height="30" as="alternateBounds"/>
                    </mxGeometry>
                </mxCell>
                <mxCell id="865" value="IdEndereco" style="shape=partialRectangle;connectable=0;fillColor=none;top=0;left=0;bottom=0;right=0;align=left;spacingLeft=6;fontStyle=1;overflow=hidden;" parent="863" vertex="1">
                    <mxGeometry x="60" width="120" height="30" as="geometry">
                        <mxRectangle width="120" height="30" as="alternateBounds"/>
                    </mxGeometry>
                </mxCell>
                <mxCell id="866" value="" style="shape=tableRow;horizontal=0;startSize=0;swimlaneHead=0;swimlaneBody=0;fillColor=none;collapsible=0;dropTarget=0;points=[[0,0.5],[1,0.5]];portConstraint=eastwest;top=0;left=0;right=0;bottom=0;" parent="853" vertex="1">
                    <mxGeometry y="90" width="180" height="30" as="geometry"/>
                </mxCell>
                <mxCell id="867" value="" style="shape=partialRectangle;connectable=0;fillColor=none;top=0;left=0;bottom=0;right=0;editable=1;overflow=hidden;" parent="866" vertex="1">
                    <mxGeometry width="60" height="30" as="geometry">
                        <mxRectangle width="60" height="30" as="alternateBounds"/>
                    </mxGeometry>
                </mxCell>
                <mxCell id="868" value="Cliente" style="shape=partialRectangle;connectable=0;fillColor=none;top=0;left=0;bottom=0;right=0;align=left;spacingLeft=6;overflow=hidden;" parent="866" vertex="1">
                    <mxGeometry x="60" width="120" height="30" as="geometry">
                        <mxRectangle width="120" height="30" as="alternateBounds"/>
                    </mxGeometry>
                </mxCell>
                <mxCell id="869" value="" style="shape=tableRow;horizontal=0;startSize=0;swimlaneHead=0;swimlaneBody=0;fillColor=none;collapsible=0;dropTarget=0;points=[[0,0.5],[1,0.5]];portConstraint=eastwest;top=0;left=0;right=0;bottom=0;" parent="853" vertex="1">
                    <mxGeometry y="120" width="180" height="30" as="geometry"/>
                </mxCell>
                <mxCell id="870" value="" style="shape=partialRectangle;connectable=0;fillColor=none;top=0;left=0;bottom=0;right=0;editable=1;overflow=hidden;" parent="869" vertex="1">
                    <mxGeometry width="60" height="30" as="geometry">
                        <mxRectangle width="60" height="30" as="alternateBounds"/>
                    </mxGeometry>
                </mxCell>
                <mxCell id="871" value="CPF" style="shape=partialRectangle;connectable=0;fillColor=none;top=0;left=0;bottom=0;right=0;align=left;spacingLeft=6;overflow=hidden;" parent="869" vertex="1">
                    <mxGeometry x="60" width="120" height="30" as="geometry">
                        <mxRectangle width="120" height="30" as="alternateBounds"/>
                    </mxGeometry>
                </mxCell>
                <mxCell id="872" value="" style="edgeStyle=entityRelationEdgeStyle;fontSize=12;html=1;endArrow=ERoneToMany;" parent="1" source="291" target="795" edge="1">
                    <mxGeometry width="100" height="100" relative="1" as="geometry">
                        <mxPoint x="870" y="1254" as="sourcePoint"/>
                        <mxPoint x="970" y="1154" as="targetPoint"/>
                    </mxGeometry>
                </mxCell>
                <mxCell id="873" value="" style="edgeStyle=entityRelationEdgeStyle;fontSize=12;html=1;endArrow=ERoneToMany;" parent="1" source="404" target="798" edge="1">
                    <mxGeometry width="100" height="100" relative="1" as="geometry">
                        <mxPoint x="867" y="1108" as="sourcePoint"/>
                        <mxPoint x="773" y="1069" as="targetPoint"/>
                    </mxGeometry>
                </mxCell>
                <mxCell id="876" value="PetCliente" style="shape=table;startSize=30;container=1;collapsible=1;childLayout=tableLayout;fixedRows=1;rowLines=0;fontStyle=1;align=center;resizeLast=1;" parent="1" vertex="1">
                    <mxGeometry x="354" y="1274" width="180" height="120" as="geometry"/>
                </mxCell>
                <mxCell id="877" value="" style="shape=tableRow;horizontal=0;startSize=0;swimlaneHead=0;swimlaneBody=0;fillColor=none;collapsible=0;dropTarget=0;points=[[0,0.5],[1,0.5]];portConstraint=eastwest;top=0;left=0;right=0;bottom=0;" parent="876" vertex="1">
                    <mxGeometry y="30" width="180" height="30" as="geometry"/>
                </mxCell>
                <mxCell id="878" value="PK" style="shape=partialRectangle;connectable=0;fillColor=none;top=0;left=0;bottom=0;right=0;fontStyle=1;overflow=hidden;" parent="877" vertex="1">
                    <mxGeometry width="60" height="30" as="geometry">
                        <mxRectangle width="60" height="30" as="alternateBounds"/>
                    </mxGeometry>
                </mxCell>
                <mxCell id="879" value="IdPetCliente" style="shape=partialRectangle;connectable=0;fillColor=none;top=0;left=0;bottom=0;right=0;align=left;spacingLeft=6;fontStyle=5;overflow=hidden;" parent="877" vertex="1">
                    <mxGeometry x="60" width="120" height="30" as="geometry">
                        <mxRectangle width="120" height="30" as="alternateBounds"/>
                    </mxGeometry>
                </mxCell>
                <mxCell id="889" value="" style="shape=tableRow;horizontal=0;startSize=0;swimlaneHead=0;swimlaneBody=0;fillColor=none;collapsible=0;dropTarget=0;points=[[0,0.5],[1,0.5]];portConstraint=eastwest;top=0;left=0;right=0;bottom=0;" parent="876" vertex="1">
                    <mxGeometry y="60" width="180" height="30" as="geometry"/>
                </mxCell>
                <mxCell id="890" value="FK" style="shape=partialRectangle;connectable=0;fillColor=none;top=0;left=0;bottom=0;right=0;fontStyle=1;overflow=hidden;" parent="889" vertex="1">
                    <mxGeometry width="60" height="30" as="geometry">
                        <mxRectangle width="60" height="30" as="alternateBounds"/>
                    </mxGeometry>
                </mxCell>
                <mxCell id="891" value="IdPet" style="shape=partialRectangle;connectable=0;fillColor=none;top=0;left=0;bottom=0;right=0;align=left;spacingLeft=6;fontStyle=5;overflow=hidden;" parent="889" vertex="1">
                    <mxGeometry x="60" width="120" height="30" as="geometry">
                        <mxRectangle width="120" height="30" as="alternateBounds"/>
                    </mxGeometry>
                </mxCell>
                <mxCell id="880" value="" style="shape=tableRow;horizontal=0;startSize=0;swimlaneHead=0;swimlaneBody=0;fillColor=none;collapsible=0;dropTarget=0;points=[[0,0.5],[1,0.5]];portConstraint=eastwest;top=0;left=0;right=0;bottom=1;" parent="876" vertex="1">
                    <mxGeometry y="90" width="180" height="30" as="geometry"/>
                </mxCell>
                <mxCell id="881" value="FK" style="shape=partialRectangle;connectable=0;fillColor=none;top=0;left=0;bottom=0;right=0;fontStyle=1;overflow=hidden;" parent="880" vertex="1">
                    <mxGeometry width="60" height="30" as="geometry">
                        <mxRectangle width="60" height="30" as="alternateBounds"/>
                    </mxGeometry>
                </mxCell>
                <mxCell id="882" value="IdCliente" style="shape=partialRectangle;connectable=0;fillColor=none;top=0;left=0;bottom=0;right=0;align=left;spacingLeft=6;fontStyle=5;overflow=hidden;" parent="880" vertex="1">
                    <mxGeometry x="60" width="120" height="30" as="geometry">
                        <mxRectangle width="120" height="30" as="alternateBounds"/>
                    </mxGeometry>
                </mxCell>
                <mxCell id="892" value="" style="edgeStyle=entityRelationEdgeStyle;fontSize=12;html=1;endArrow=ERoneToMany;" parent="1" source="792" target="889" edge="1">
                    <mxGeometry width="100" height="100" relative="1" as="geometry">
                        <mxPoint x="667" y="1274" as="sourcePoint"/>
                        <mxPoint x="881" y="1256" as="targetPoint"/>
                    </mxGeometry>
                </mxCell>
                <mxCell id="893" value="" style="edgeStyle=entityRelationEdgeStyle;fontSize=12;html=1;endArrow=ERoneToMany;" parent="1" source="854" target="880" edge="1">
                    <mxGeometry width="100" height="100" relative="1" as="geometry">
                        <mxPoint x="121" y="1324" as="sourcePoint"/>
                        <mxPoint x="221" y="1224" as="targetPoint"/>
                    </mxGeometry>
                </mxCell>
                <mxCell id="895" style="edgeStyle=none;html=1;endArrow=none;endFill=0;" parent="1" source="894" target="650" edge="1">
                    <mxGeometry relative="1" as="geometry"/>
                </mxCell>
                <mxCell id="896" value="1" style="edgeLabel;html=1;align=center;verticalAlign=middle;resizable=0;points=[];" parent="895" vertex="1" connectable="0">
                    <mxGeometry x="-0.0561" relative="1" as="geometry">
                        <mxPoint as="offset"/>
                    </mxGeometry>
                </mxCell>
                <mxCell id="894" value="Possui" style="shape=rhombus;perimeter=rhombusPerimeter;whiteSpace=wrap;html=1;align=center;" parent="1" vertex="1">
                    <mxGeometry x="345" y="417" width="120" height="60" as="geometry"/>
                </mxCell>
                <mxCell id="901" style="edgeStyle=none;html=1;endArrow=none;endFill=0;" parent="1" source="899" target="678" edge="1">
                    <mxGeometry relative="1" as="geometry"/>
                </mxCell>
                <mxCell id="899" value="Nome" style="ellipse;whiteSpace=wrap;html=1;align=center;" parent="1" vertex="1">
                    <mxGeometry x="1043" y="372" width="100" height="40" as="geometry"/>
                </mxCell>
                <mxCell id="902" style="edgeStyle=none;html=1;endArrow=none;endFill=0;" parent="1" source="900" target="678" edge="1">
                    <mxGeometry relative="1" as="geometry"/>
                </mxCell>
                <mxCell id="900" value="CPF" style="ellipse;whiteSpace=wrap;html=1;align=center;" parent="1" vertex="1">
                    <mxGeometry x="1190" y="372" width="100" height="40" as="geometry"/>
                </mxCell>
                <mxCell id="934" style="edgeStyle=none;html=1;endArrow=none;endFill=0;" parent="1" source="933" target="649" edge="1">
                    <mxGeometry relative="1" as="geometry"/>
                </mxCell>
                <mxCell id="933" value="CNPJ" style="ellipse;whiteSpace=wrap;html=1;align=center;" parent="1" vertex="1">
                    <mxGeometry x="-419" y="700" width="100" height="40" as="geometry"/>
                </mxCell>
                <mxCell id="950" value="" style="edgeStyle=entityRelationEdgeStyle;fontSize=12;html=1;endArrow=ERoneToMany;" parent="1" source="732" target="863" edge="1">
                    <mxGeometry width="100" height="100" relative="1" as="geometry">
                        <mxPoint x="-437" y="1427" as="sourcePoint"/>
                        <mxPoint x="-337" y="1327" as="targetPoint"/>
                    </mxGeometry>
                </mxCell>
                <mxCell id="964" value="TipoPet" style="shape=table;startSize=30;container=1;collapsible=0;childLayout=tableLayout;fontStyle=1;align=center;shadow=1;labelBackgroundColor=none;" parent="1" vertex="1">
                    <mxGeometry x="72.75" y="1632" width="221" height="256" as="geometry"/>
                </mxCell>
                <mxCell id="965" value="" style="shape=tableRow;horizontal=0;startSize=0;swimlaneHead=0;swimlaneBody=0;top=0;left=0;bottom=0;right=0;collapsible=0;dropTarget=0;fillColor=none;points=[[0,0.5],[1,0.5]];portConstraint=eastwest;shadow=1;labelBackgroundColor=none;strokeColor=#050505;fontColor=#000000;" parent="964" vertex="1">
                    <mxGeometry y="30" width="221" height="57" as="geometry"/>
                </mxCell>
                <mxCell id="966" value="IdTipoPet" style="shape=partialRectangle;html=1;whiteSpace=wrap;connectable=0;top=0;left=0;bottom=0;right=0;overflow=hidden;shadow=1;labelBackgroundColor=none;" parent="965" vertex="1">
                    <mxGeometry width="80" height="57" as="geometry">
                        <mxRectangle width="80" height="57" as="alternateBounds"/>
                    </mxGeometry>
                </mxCell>
                <mxCell id="967" value="Tipo" style="shape=partialRectangle;html=1;whiteSpace=wrap;connectable=0;top=0;left=0;bottom=0;right=0;overflow=hidden;shadow=1;labelBackgroundColor=none;" parent="965" vertex="1">
                    <mxGeometry x="80" width="141" height="57" as="geometry">
                        <mxRectangle width="141" height="57" as="alternateBounds"/>
                    </mxGeometry>
                </mxCell>
                <mxCell id="972" value="" style="shape=tableRow;horizontal=0;startSize=0;swimlaneHead=0;swimlaneBody=0;top=0;left=0;bottom=0;right=0;collapsible=0;dropTarget=0;fillColor=none;points=[[0,0.5],[1,0.5]];portConstraint=eastwest;shadow=1;labelBackgroundColor=none;strokeColor=#050505;fontColor=#000000;" parent="964" vertex="1">
                    <mxGeometry y="87" width="221" height="57" as="geometry"/>
                </mxCell>
                <mxCell id="973" value="1" style="shape=partialRectangle;html=1;whiteSpace=wrap;connectable=0;top=0;left=0;bottom=0;right=0;overflow=hidden;shadow=1;labelBackgroundColor=none;fillColor=#eeeeee;strokeColor=#36393d;fontColor=#252323;" parent="972" vertex="1">
                    <mxGeometry width="80" height="57" as="geometry">
                        <mxRectangle width="80" height="57" as="alternateBounds"/>
                    </mxGeometry>
                </mxCell>
                <mxCell id="974" value="Cachorro" style="shape=partialRectangle;html=1;whiteSpace=wrap;connectable=0;top=0;left=0;bottom=0;right=0;overflow=hidden;shadow=1;labelBackgroundColor=none;fillColor=#eeeeee;strokeColor=#36393d;fontColor=#252323;" parent="972" vertex="1">
                    <mxGeometry x="80" width="141" height="57" as="geometry">
                        <mxRectangle width="141" height="57" as="alternateBounds"/>
                    </mxGeometry>
                </mxCell>
                <mxCell id="979" value="" style="shape=tableRow;horizontal=0;startSize=0;swimlaneHead=0;swimlaneBody=0;top=0;left=0;bottom=0;right=0;collapsible=0;dropTarget=0;fillColor=none;points=[[0,0.5],[1,0.5]];portConstraint=eastwest;shadow=1;labelBackgroundColor=none;strokeColor=#050505;fontColor=#000000;" parent="964" vertex="1">
                    <mxGeometry y="144" width="221" height="56" as="geometry"/>
                </mxCell>
                <mxCell id="980" value="2" style="shape=partialRectangle;html=1;whiteSpace=wrap;connectable=0;top=0;left=0;bottom=0;right=0;overflow=hidden;shadow=1;labelBackgroundColor=none;fillColor=#eeeeee;strokeColor=#36393d;fontColor=#252323;" parent="979" vertex="1">
                    <mxGeometry width="80" height="56" as="geometry">
                        <mxRectangle width="80" height="56" as="alternateBounds"/>
                    </mxGeometry>
                </mxCell>
                <mxCell id="981" value="Pato" style="shape=partialRectangle;html=1;whiteSpace=wrap;connectable=0;top=0;left=0;bottom=0;right=0;overflow=hidden;shadow=1;labelBackgroundColor=none;fillColor=#eeeeee;strokeColor=#36393d;fontColor=#252323;" parent="979" vertex="1">
                    <mxGeometry x="80" width="141" height="56" as="geometry">
                        <mxRectangle width="141" height="56" as="alternateBounds"/>
                    </mxGeometry>
                </mxCell>
                <mxCell id="986" style="shape=tableRow;horizontal=0;startSize=0;swimlaneHead=0;swimlaneBody=0;top=0;left=0;bottom=0;right=0;collapsible=0;dropTarget=0;fillColor=none;points=[[0,0.5],[1,0.5]];portConstraint=eastwest;shadow=1;labelBackgroundColor=none;strokeColor=#050505;fontColor=#000000;" parent="964" vertex="1">
                    <mxGeometry y="200" width="221" height="56" as="geometry"/>
                </mxCell>
                <mxCell id="987" value="3" style="shape=partialRectangle;html=1;whiteSpace=wrap;connectable=0;top=0;left=0;bottom=0;right=0;overflow=hidden;shadow=1;labelBackgroundColor=none;fillColor=#eeeeee;strokeColor=#36393d;fontColor=#252323;" parent="986" vertex="1">
                    <mxGeometry width="80" height="56" as="geometry">
                        <mxRectangle width="80" height="56" as="alternateBounds"/>
                    </mxGeometry>
                </mxCell>
                <mxCell id="988" value="Papagaio" style="shape=partialRectangle;html=1;whiteSpace=wrap;connectable=0;top=0;left=0;bottom=0;right=0;overflow=hidden;shadow=1;labelBackgroundColor=none;fillColor=#eeeeee;strokeColor=#36393d;fontColor=#252323;" parent="986" vertex="1">
                    <mxGeometry x="80" width="141" height="56" as="geometry">
                        <mxRectangle width="141" height="56" as="alternateBounds"/>
                    </mxGeometry>
                </mxCell>
                <mxCell id="997" value="Raca" style="shape=table;startSize=30;container=1;collapsible=0;childLayout=tableLayout;fontStyle=1;align=center;shadow=1;labelBackgroundColor=none;" parent="1" vertex="1">
                    <mxGeometry x="329.75" y="1631" width="221" height="256" as="geometry"/>
                </mxCell>
                <mxCell id="998" value="" style="shape=tableRow;horizontal=0;startSize=0;swimlaneHead=0;swimlaneBody=0;top=0;left=0;bottom=0;right=0;collapsible=0;dropTarget=0;fillColor=none;points=[[0,0.5],[1,0.5]];portConstraint=eastwest;shadow=1;labelBackgroundColor=none;strokeColor=#050505;fontColor=#000000;" parent="997" vertex="1">
                    <mxGeometry y="30" width="221" height="57" as="geometry"/>
                </mxCell>
                <mxCell id="999" value="IdRaca" style="shape=partialRectangle;html=1;whiteSpace=wrap;connectable=0;top=0;left=0;bottom=0;right=0;overflow=hidden;shadow=1;labelBackgroundColor=none;" parent="998" vertex="1">
                    <mxGeometry width="80" height="57" as="geometry">
                        <mxRectangle width="80" height="57" as="alternateBounds"/>
                    </mxGeometry>
                </mxCell>
                <mxCell id="1000" value="Raca" style="shape=partialRectangle;html=1;whiteSpace=wrap;connectable=0;top=0;left=0;bottom=0;right=0;overflow=hidden;shadow=1;labelBackgroundColor=none;" parent="998" vertex="1">
                    <mxGeometry x="80" width="141" height="57" as="geometry">
                        <mxRectangle width="141" height="57" as="alternateBounds"/>
                    </mxGeometry>
                </mxCell>
                <mxCell id="1001" value="" style="shape=tableRow;horizontal=0;startSize=0;swimlaneHead=0;swimlaneBody=0;top=0;left=0;bottom=0;right=0;collapsible=0;dropTarget=0;fillColor=none;points=[[0,0.5],[1,0.5]];portConstraint=eastwest;shadow=1;labelBackgroundColor=none;strokeColor=#050505;fontColor=#000000;" parent="997" vertex="1">
                    <mxGeometry y="87" width="221" height="57" as="geometry"/>
                </mxCell>
                <mxCell id="1002" value="1" style="shape=partialRectangle;html=1;whiteSpace=wrap;connectable=0;top=0;left=0;bottom=0;right=0;overflow=hidden;shadow=1;labelBackgroundColor=none;fillColor=#eeeeee;strokeColor=#36393d;fontColor=#252323;" parent="1001" vertex="1">
                    <mxGeometry width="80" height="57" as="geometry">
                        <mxRectangle width="80" height="57" as="alternateBounds"/>
                    </mxGeometry>
                </mxCell>
                <mxCell id="1003" value="rottweiler" style="shape=partialRectangle;html=1;whiteSpace=wrap;connectable=0;top=0;left=0;bottom=0;right=0;overflow=hidden;shadow=1;labelBackgroundColor=none;fillColor=#eeeeee;strokeColor=#36393d;fontColor=#252323;" parent="1001" vertex="1">
                    <mxGeometry x="80" width="141" height="57" as="geometry">
                        <mxRectangle width="141" height="57" as="alternateBounds"/>
                    </mxGeometry>
                </mxCell>
                <mxCell id="1007" style="shape=tableRow;horizontal=0;startSize=0;swimlaneHead=0;swimlaneBody=0;top=0;left=0;bottom=0;right=0;collapsible=0;dropTarget=0;fillColor=none;points=[[0,0.5],[1,0.5]];portConstraint=eastwest;shadow=1;labelBackgroundColor=none;strokeColor=#050505;fontColor=#000000;" parent="997" vertex="1">
                    <mxGeometry y="144" width="221" height="56" as="geometry"/>
                </mxCell>
                <mxCell id="1008" value="2" style="shape=partialRectangle;html=1;whiteSpace=wrap;connectable=0;top=0;left=0;bottom=0;right=0;overflow=hidden;shadow=1;labelBackgroundColor=none;fillColor=#eeeeee;strokeColor=#36393d;fontColor=#252323;" parent="1007" vertex="1">
                    <mxGeometry width="80" height="56" as="geometry">
                        <mxRectangle width="80" height="56" as="alternateBounds"/>
                    </mxGeometry>
                </mxCell>
                <mxCell id="1009" value="Papagaio Verdadeiro" style="shape=partialRectangle;html=1;whiteSpace=wrap;connectable=0;top=0;left=0;bottom=0;right=0;overflow=hidden;shadow=1;labelBackgroundColor=none;fillColor=#eeeeee;strokeColor=#36393d;fontColor=#252323;" parent="1007" vertex="1">
                    <mxGeometry x="80" width="141" height="56" as="geometry">
                        <mxRectangle width="141" height="56" as="alternateBounds"/>
                    </mxGeometry>
                </mxCell>
                <mxCell id="1063" style="shape=tableRow;horizontal=0;startSize=0;swimlaneHead=0;swimlaneBody=0;top=0;left=0;bottom=0;right=0;collapsible=0;dropTarget=0;fillColor=none;points=[[0,0.5],[1,0.5]];portConstraint=eastwest;shadow=1;labelBackgroundColor=none;strokeColor=#050505;fontColor=#000000;" parent="997" vertex="1">
                    <mxGeometry y="200" width="221" height="56" as="geometry"/>
                </mxCell>
                <mxCell id="1064" value="3" style="shape=partialRectangle;html=1;whiteSpace=wrap;connectable=0;top=0;left=0;bottom=0;right=0;overflow=hidden;shadow=1;labelBackgroundColor=none;fillColor=#eeeeee;strokeColor=#36393d;fontColor=#252323;" parent="1063" vertex="1">
                    <mxGeometry width="80" height="56" as="geometry">
                        <mxRectangle width="80" height="56" as="alternateBounds"/>
                    </mxGeometry>
                </mxCell>
                <mxCell id="1065" value="Marreca-Parda" style="shape=partialRectangle;html=1;whiteSpace=wrap;connectable=0;top=0;left=0;bottom=0;right=0;overflow=hidden;shadow=1;labelBackgroundColor=none;fillColor=#eeeeee;strokeColor=#36393d;fontColor=#252323;" parent="1063" vertex="1">
                    <mxGeometry x="80" width="141" height="56" as="geometry">
                        <mxRectangle width="141" height="56" as="alternateBounds"/>
                    </mxGeometry>
                </mxCell>
                <mxCell id="1010" value="PetDono" style="shape=table;startSize=30;container=1;collapsible=0;childLayout=tableLayout;fontStyle=1;align=center;shadow=1;labelBackgroundColor=none;" parent="1" vertex="1">
                    <mxGeometry x="-324.25" y="1630" width="362" height="312" as="geometry"/>
                </mxCell>
                <mxCell id="1011" value="" style="shape=tableRow;horizontal=0;startSize=0;swimlaneHead=0;swimlaneBody=0;top=0;left=0;bottom=0;right=0;collapsible=0;dropTarget=0;fillColor=none;points=[[0,0.5],[1,0.5]];portConstraint=eastwest;shadow=1;labelBackgroundColor=none;strokeColor=#050505;fontColor=#000000;" parent="1010" vertex="1">
                    <mxGeometry y="30" width="362" height="57" as="geometry"/>
                </mxCell>
                <mxCell id="1012" value="IdPetDono" style="shape=partialRectangle;html=1;whiteSpace=wrap;connectable=0;top=0;left=0;bottom=0;right=0;overflow=hidden;shadow=1;labelBackgroundColor=none;" parent="1011" vertex="1">
                    <mxGeometry width="80" height="57" as="geometry">
                        <mxRectangle width="80" height="57" as="alternateBounds"/>
                    </mxGeometry>
                </mxCell>
                <mxCell id="1013" value="IdPet" style="shape=partialRectangle;html=1;whiteSpace=wrap;connectable=0;top=0;left=0;bottom=0;right=0;overflow=hidden;shadow=1;labelBackgroundColor=none;" parent="1011" vertex="1">
                    <mxGeometry x="80" width="141" height="57" as="geometry">
                        <mxRectangle width="141" height="57" as="alternateBounds"/>
                    </mxGeometry>
                </mxCell>
                <mxCell id="1014" value="IdDono" style="shape=partialRectangle;html=1;whiteSpace=wrap;connectable=0;top=0;left=0;bottom=0;right=0;overflow=hidden;shadow=1;labelBackgroundColor=none;" parent="1011" vertex="1">
                    <mxGeometry x="221" width="141" height="57" as="geometry">
                        <mxRectangle width="141" height="57" as="alternateBounds"/>
                    </mxGeometry>
                </mxCell>
                <mxCell id="1016" value="" style="shape=tableRow;horizontal=0;startSize=0;swimlaneHead=0;swimlaneBody=0;top=0;left=0;bottom=0;right=0;collapsible=0;dropTarget=0;fillColor=none;points=[[0,0.5],[1,0.5]];portConstraint=eastwest;shadow=1;labelBackgroundColor=none;strokeColor=#050505;fontColor=#000000;" parent="1010" vertex="1">
                    <mxGeometry y="87" width="362" height="57" as="geometry"/>
                </mxCell>
                <mxCell id="1017" value="1" style="shape=partialRectangle;html=1;whiteSpace=wrap;connectable=0;top=0;left=0;bottom=0;right=0;overflow=hidden;shadow=1;labelBackgroundColor=none;fillColor=#eeeeee;strokeColor=#36393d;fontColor=#252323;" parent="1016" vertex="1">
                    <mxGeometry width="80" height="57" as="geometry">
                        <mxRectangle width="80" height="57" as="alternateBounds"/>
                    </mxGeometry>
                </mxCell>
                <mxCell id="1018" value="1" style="shape=partialRectangle;html=1;whiteSpace=wrap;connectable=0;top=0;left=0;bottom=0;right=0;overflow=hidden;shadow=1;labelBackgroundColor=none;fillColor=#eeeeee;strokeColor=#36393d;fontColor=#252323;" parent="1016" vertex="1">
                    <mxGeometry x="80" width="141" height="57" as="geometry">
                        <mxRectangle width="141" height="57" as="alternateBounds"/>
                    </mxGeometry>
                </mxCell>
                <mxCell id="1019" value="1" style="shape=partialRectangle;html=1;whiteSpace=wrap;connectable=0;top=0;left=0;bottom=0;right=0;overflow=hidden;shadow=1;labelBackgroundColor=none;fillColor=#eeeeee;strokeColor=#36393d;fontColor=#252323;" parent="1016" vertex="1">
                    <mxGeometry x="221" width="141" height="57" as="geometry">
                        <mxRectangle width="141" height="57" as="alternateBounds"/>
                    </mxGeometry>
                </mxCell>
                <mxCell id="1021" value="" style="shape=tableRow;horizontal=0;startSize=0;swimlaneHead=0;swimlaneBody=0;top=0;left=0;bottom=0;right=0;collapsible=0;dropTarget=0;fillColor=none;points=[[0,0.5],[1,0.5]];portConstraint=eastwest;shadow=1;labelBackgroundColor=none;strokeColor=#050505;fontColor=#000000;" parent="1010" vertex="1">
                    <mxGeometry y="144" width="362" height="56" as="geometry"/>
                </mxCell>
                <mxCell id="1022" value="2" style="shape=partialRectangle;html=1;whiteSpace=wrap;connectable=0;top=0;left=0;bottom=0;right=0;overflow=hidden;shadow=1;labelBackgroundColor=none;fillColor=#eeeeee;strokeColor=#36393d;fontColor=#252323;" parent="1021" vertex="1">
                    <mxGeometry width="80" height="56" as="geometry">
                        <mxRectangle width="80" height="56" as="alternateBounds"/>
                    </mxGeometry>
                </mxCell>
                <mxCell id="1023" value="1" style="shape=partialRectangle;html=1;whiteSpace=wrap;connectable=0;top=0;left=0;bottom=0;right=0;overflow=hidden;shadow=1;labelBackgroundColor=none;fillColor=#eeeeee;strokeColor=#36393d;fontColor=#252323;" parent="1021" vertex="1">
                    <mxGeometry x="80" width="141" height="56" as="geometry">
                        <mxRectangle width="141" height="56" as="alternateBounds"/>
                    </mxGeometry>
                </mxCell>
                <mxCell id="1024" value="3" style="shape=partialRectangle;html=1;whiteSpace=wrap;connectable=0;top=0;left=0;bottom=0;right=0;overflow=hidden;shadow=1;labelBackgroundColor=none;fillColor=#eeeeee;strokeColor=#36393d;fontColor=#252323;" parent="1021" vertex="1">
                    <mxGeometry x="221" width="141" height="56" as="geometry">
                        <mxRectangle width="141" height="56" as="alternateBounds"/>
                    </mxGeometry>
                </mxCell>
                <mxCell id="1066" style="shape=tableRow;horizontal=0;startSize=0;swimlaneHead=0;swimlaneBody=0;top=0;left=0;bottom=0;right=0;collapsible=0;dropTarget=0;fillColor=none;points=[[0,0.5],[1,0.5]];portConstraint=eastwest;shadow=1;labelBackgroundColor=none;strokeColor=#050505;fontColor=#000000;" parent="1010" vertex="1">
                    <mxGeometry y="200" width="362" height="56" as="geometry"/>
                </mxCell>
                <mxCell id="1067" value="3" style="shape=partialRectangle;html=1;whiteSpace=wrap;connectable=0;top=0;left=0;bottom=0;right=0;overflow=hidden;shadow=1;labelBackgroundColor=none;fillColor=#eeeeee;strokeColor=#36393d;fontColor=#252323;" parent="1066" vertex="1">
                    <mxGeometry width="80" height="56" as="geometry">
                        <mxRectangle width="80" height="56" as="alternateBounds"/>
                    </mxGeometry>
                </mxCell>
                <mxCell id="1068" value="2" style="shape=partialRectangle;html=1;whiteSpace=wrap;connectable=0;top=0;left=0;bottom=0;right=0;overflow=hidden;shadow=1;labelBackgroundColor=none;fillColor=#eeeeee;strokeColor=#36393d;fontColor=#252323;" parent="1066" vertex="1">
                    <mxGeometry x="80" width="141" height="56" as="geometry">
                        <mxRectangle width="141" height="56" as="alternateBounds"/>
                    </mxGeometry>
                </mxCell>
                <mxCell id="1069" value="2" style="shape=partialRectangle;html=1;whiteSpace=wrap;connectable=0;top=0;left=0;bottom=0;right=0;overflow=hidden;shadow=1;labelBackgroundColor=none;fillColor=#eeeeee;strokeColor=#36393d;fontColor=#252323;" parent="1066" vertex="1">
                    <mxGeometry x="221" width="141" height="56" as="geometry">
                        <mxRectangle width="141" height="56" as="alternateBounds"/>
                    </mxGeometry>
                </mxCell>
                <mxCell id="1070" style="shape=tableRow;horizontal=0;startSize=0;swimlaneHead=0;swimlaneBody=0;top=0;left=0;bottom=0;right=0;collapsible=0;dropTarget=0;fillColor=none;points=[[0,0.5],[1,0.5]];portConstraint=eastwest;shadow=1;labelBackgroundColor=none;strokeColor=#050505;fontColor=#000000;" parent="1010" vertex="1">
                    <mxGeometry y="256" width="362" height="56" as="geometry"/>
                </mxCell>
                <mxCell id="1071" value="4" style="shape=partialRectangle;html=1;whiteSpace=wrap;connectable=0;top=0;left=0;bottom=0;right=0;overflow=hidden;shadow=1;labelBackgroundColor=none;fillColor=#eeeeee;strokeColor=#36393d;fontColor=#252323;" parent="1070" vertex="1">
                    <mxGeometry width="80" height="56" as="geometry">
                        <mxRectangle width="80" height="56" as="alternateBounds"/>
                    </mxGeometry>
                </mxCell>
                <mxCell id="1072" value="3" style="shape=partialRectangle;html=1;whiteSpace=wrap;connectable=0;top=0;left=0;bottom=0;right=0;overflow=hidden;shadow=1;labelBackgroundColor=none;fillColor=#eeeeee;strokeColor=#36393d;fontColor=#252323;" parent="1070" vertex="1">
                    <mxGeometry x="80" width="141" height="56" as="geometry">
                        <mxRectangle width="141" height="56" as="alternateBounds"/>
                    </mxGeometry>
                </mxCell>
                <mxCell id="1073" value="1" style="shape=partialRectangle;html=1;whiteSpace=wrap;connectable=0;top=0;left=0;bottom=0;right=0;overflow=hidden;shadow=1;labelBackgroundColor=none;fillColor=#eeeeee;strokeColor=#36393d;fontColor=#252323;" parent="1070" vertex="1">
                    <mxGeometry x="221" width="141" height="56" as="geometry">
                        <mxRectangle width="141" height="56" as="alternateBounds"/>
                    </mxGeometry>
                </mxCell>
            </root>
        </mxGraphModel>
    </diagram>
</mxfile>